<?xml version="1.0" encoding="utf-8"?>
<!-- Generator: Adobe Illustrator 27.5.0, SVG Export Plug-In . SVG Version: 6.00 Build 0)  -->
<svg version="1.1" xmlns="http://www.w3.org/2000/svg" xmlns:xlink="http://www.w3.org/1999/xlink" x="0px" y="0px"
	 viewBox="0 0 750 500" style="enable-background:new 0 0 750 500;" xml:space="preserve">
<g id="BACKGROUND">
	<rect style="fill:#FFFFFF;" width="750" height="500"/>
</g>
<g id="OBJECTS">
	<g>
		<g>
			<path style="fill:none;stroke:#CEDBED;stroke-width:2.1897;stroke-miterlimit:10;" d="M629.982,159.518
				c11.494,9.719,21.896,22.028,30.029,37.609c9.212,17.648,14.461,37.857,15.696,60.325"/>
			<path style="fill:none;stroke:#CEDBED;stroke-width:2.1897;stroke-miterlimit:10;" d="M84.559,237.21
				c1.961-10.995,4.571-21.591,7.822-31.749c10.845-33.874,28.823-62.818,53.486-86.141"/>
			<path style="fill:none;stroke:#CEDBED;stroke-width:2.1897;stroke-miterlimit:10;" d="M619.564,159.213
				c13.474,9.934,25.753,23.168,34.948,40.783c9.054,17.345,14.103,37.345,15.095,59.685"/>
			<path style="fill:none;stroke:#CEDBED;stroke-width:2.1897;stroke-miterlimit:10;" d="M90.367,240.001
				c1.944-11.333,4.586-22.23,7.921-32.648c11.27-35.202,30.463-64.901,57.046-88.272"/>
			<path style="fill:none;stroke:#CEDBED;stroke-width:2.1897;stroke-miterlimit:10;" d="M605.979,157.646
				c16.622,9.938,32.14,24.35,43.033,45.221c9.192,17.61,14.058,38.169,14.535,61.312"/>
			<path style="fill:none;stroke:#CEDBED;stroke-width:2.1897;stroke-miterlimit:10;" d="M96.051,243.625
				c1.928-11.975,4.646-23.453,8.144-34.381c10.923-34.117,29.506-62.886,55.234-85.506c2.432-2.139,4.882-4.219,7.349-6.242"/>
		</g>
		<path style="fill:#CEDBED;" d="M116.044,399.071c0,0-61.566-174.801,47.48-270.674c108.33-95.243,222.222-46.636,253.612-30.038
			c46.754,24.723,80.845,36.439,136.329,46.679c81.153,14.978,146.456,85.165,69.79,254.032H116.044z"/>
		<linearGradient id="SVGID_1_" gradientUnits="userSpaceOnUse" x1="444.4415" y1="78.9597" x2="309.0234" y2="387.0094">
			<stop  offset="0.0532" style="stop-color:#A1C1ED"/>
			<stop  offset="1" style="stop-color:#A1C1ED;stop-opacity:0"/>
		</linearGradient>
		<path style="fill:url(#SVGID_1_);" d="M427.474,302.088c-24.873-130.249-142.271-119.544-142.271-119.544
			c-30.076-49.227-66.661-67.477-98.465-72.358c-7.745,5.39-15.493,11.424-23.214,18.211
			c-109.046,95.873-47.48,270.674-47.48,270.674h465.126C544.386,307.376,427.474,302.088,427.474,302.088z"/>
		<path style="fill:none;stroke:#FFFFFF;stroke-width:1.0337;stroke-miterlimit:10;" d="M165.822,193.346
			c7.107,10.466,21.591,9.591,32.574-2.297c26.831-29.041,60.506-43.928,87.479-49.231c35.706-7.02,61.894,2.085,70.944,12.017
			c7.861,8.626-3.881,14.903-10.601,11.715c-6.719-3.187,4.081-9.815,19.65-9.03c18.468,0.932,61.223,15.76,87.512,24.07
			c41.187,13.019,84.889,7.071,96.26-1.801c11.371-8.873-6.671-15.22-11.15-2.557c-4.479,12.663,12.577,26.263,34.63,25.069"/>
		<g>
			<path style="fill:#80371D;" d="M447.24,191.736l-27.227-12.947h-40.36l-27.227,12.947c-8.026,3.816-13.78,11.197-15.524,19.912
				l-12.188,60.922h75.119h75.119l-12.188-60.922C461.02,202.934,455.266,195.553,447.24,191.736z"/>
			<path style="fill:none;stroke:#471F10;stroke-width:1.1288;stroke-miterlimit:10;" d="M363.368,211.852
				c0,0,3.876,14.86-1.155,22.033"/>
			
				<linearGradient id="SVGID_00000005946022939062652110000005711895923965949572_" gradientUnits="userSpaceOnUse" x1="367.6654" y1="286.9362" x2="415.2166" y2="218.1936">
				<stop  offset="0.0334" style="stop-color:#000000"/>
				<stop  offset="1" style="stop-color:#000000;stop-opacity:0"/>
			</linearGradient>
			<path style="opacity:0.24;fill:url(#SVGID_00000005946022939062652110000005711895923965949572_);" d="M399.832,272.57h43.872
				c-5.328-2.93-20.433-10.598-28.571-8.213c-9.993,2.929-15.081-7.124-18.779-11.026c-8.959-9.454-22.225-8.442-22.225-19.446
				c0-11.003-7.925-21.042-17.734-26.216l-5.128,64.9H399.832z"/>
			<path style="fill:none;stroke:#471F10;stroke-width:1.1288;stroke-miterlimit:10;" d="M436.404,211.852
				c0,0-3.876,14.86,1.155,22.033"/>
			<path style="fill:#C9742E;" d="M420.013,178.79h-40.36l-3.466,1.648c-0.744,0.354-0.863,1.358-0.226,1.881
				c4.344,3.564,13.4,6.017,23.873,6.017s19.528-2.452,23.873-6.017c0.637-0.522,0.518-1.527-0.226-1.881L420.013,178.79z"/>
			<path style="fill:#FF6D6D;" d="M414.753,175.736c-1.119-1.007-1.796-2.414-1.886-3.916l-1.222-20.486l-11.63,2.76l-11.63-2.76
				l-1.222,20.486c-0.09,1.503-0.767,2.909-1.886,3.916l-5.624,5.062c6.174,3.001,13.214,4.223,17.188,4.703
				c2.112,0.255,4.236,0.255,6.348,0c3.975-0.48,11.014-1.703,17.189-4.703L414.753,175.736z"/>
			
				<linearGradient id="SVGID_00000062907945368035289700000012571700031941688753_" gradientUnits="userSpaceOnUse" x1="400.3589" y1="157.7114" x2="400.3589" y2="175.0436">
				<stop  offset="0" style="stop-color:#F04F4F"/>
				<stop  offset="0.9465" style="stop-color:#F04F4F;stop-opacity:0.0535"/>
				<stop  offset="1" style="stop-color:#F04F4F;stop-opacity:0"/>
			</linearGradient>
			<path style="fill:url(#SVGID_00000062907945368035289700000012571700031941688753_);" d="M412.831,171.2l-1.185-19.866
				l-11.63,2.76l-11.63-2.76l-0.497,8.336C390.18,165.014,396.795,175.273,412.831,171.2z"/>
			<path style="fill:#FF6D6D;" d="M387.094,145.005c0,0-2.757-2.197-3.833-0.388s-0.517,10.51,5.341,7.495
				C394.459,149.097,387.094,145.005,387.094,145.005z"/>
			<path style="fill:#FF6D6D;" d="M412.267,145.005c0,0,2.757-2.197,3.833-0.388c1.077,1.809,0.517,10.51-5.341,7.495
				C404.901,149.097,412.267,145.005,412.267,145.005z"/>
			<path style="fill:#471F10;" d="M388.093,149.508c0,0-2.593-2.65-2.657-6.785c0,0-6.202-9.174-0.775-14.343
				c0,0-0.129-10.079,16.087-8.011c16.217,2.067,21.493,14.472,11.199,28.88L388.093,149.508z"/>
			<path style="fill:#FF6D6D;" d="M391.495,135.238c-1.582-0.76-3.411,0.426-3.411,2.181v11.505c0,5.858,2.154,15.247,11.371,15.247
				c9.217,0,12.491-8.27,12.491-13.955c0-5.685,0-11.888,0-11.888S400.757,139.685,391.495,135.238z"/>
			<path style="fill:#0C3069;" d="M396.772,142.818c0,0.6-0.486,1.086-1.086,1.086c-0.599,0-1.086-0.486-1.086-1.086
				c0-0.6,0.486-1.086,1.086-1.086C396.286,141.732,396.772,142.218,396.772,142.818z"/>
			<path style="fill:#0C3069;" d="M405.429,142.818c0,0.6-0.486,1.086-1.086,1.086c-0.6,0-1.086-0.486-1.086-1.086
				c0-0.6,0.486-1.086,1.086-1.086C404.943,141.732,405.429,142.218,405.429,142.818z"/>
			<path style="fill:none;stroke:#D92727;stroke-width:0.5169;stroke-miterlimit:10;" d="M399.197,142.464l-0.933,6.035
				c-0.077,0.496,0.288,0.952,0.789,0.986l1.609,0.109"/>
			<path style="fill:#FFFFFF;" d="M393.905,151.552h12.22c0,0-0.892,4.566-6.341,4.566
				C394.551,156.118,393.905,151.552,393.905,151.552z"/>
			<path style="fill:none;stroke:#786337;stroke-width:0.5169;stroke-miterlimit:10;" d="M393.893,139.751
				c0,0,1.971,0.065,3.586,0.678"/>
			<path style="fill:none;stroke:#786337;stroke-width:0.5169;stroke-miterlimit:10;" d="M406.137,139.751
				c0,0-1.971,0.065-3.586,0.678"/>
			<path style="fill:#C9742E;" d="M462.764,211.648c-1.492-7.458-5.928-13.932-12.206-18.038
				c-3.036,6.405-11.427,24.481-13.113,32.069c-1.699,7.646,2.536,36.761,4.099,46.89h33.408L462.764,211.648z"/>
			<path style="fill:#C9742E;" d="M359.009,272.57c1.563-10.129,5.799-39.244,4.099-46.89c-1.727-7.77-10.481-26.532-13.32-32.504
				c-6.639,4.075-11.341,10.747-12.887,18.473l-12.188,60.922H359.009z"/>
			
				<linearGradient id="SVGID_00000064341233584126575190000000100189369548912278_" gradientUnits="userSpaceOnUse" x1="501.55" y1="295.4319" x2="436.9163" y2="224.9519">
				<stop  offset="0.0334" style="stop-color:#000000"/>
				<stop  offset="1" style="stop-color:#000000;stop-opacity:0"/>
			</linearGradient>
			<path style="opacity:0.5;fill:url(#SVGID_00000064341233584126575190000000100189369548912278_);" d="M462.764,211.648
				c-0.097-0.485-0.208-0.966-0.33-1.442c1.797,7.293-4.332,13.09-6.434,29.914c-2.103,16.829-13.717,21.367-14.457,32.45h33.408
				L462.764,211.648z"/>
		</g>
		
			<linearGradient id="SVGID_00000068660017623256788220000017334841564406239104_" gradientUnits="userSpaceOnUse" x1="500.9705" y1="171.6171" x2="518.1993" y2="338.3907">
			<stop  offset="0.0532" style="stop-color:#A1C1ED"/>
			<stop  offset="1" style="stop-color:#A1C1ED;stop-opacity:0"/>
		</linearGradient>
		<path style="fill:url(#SVGID_00000068660017623256788220000017334841564406239104_);" d="M377.097,399.071h246.159
			c42.966-94.638,41.336-158.277,17.322-198.58c-16.804,5.627-43.071,19.257-63.896,51.964c0,0-83.949-2.718-120.681,96.507
			C456,348.962,396.43,363.426,377.097,399.071z"/>
		<g>
			
				<linearGradient id="SVGID_00000033338168209346987370000011578563897742478261_" gradientUnits="userSpaceOnUse" x1="377.0466" y1="354.7594" x2="359.6227" y2="89.2982">
				<stop  offset="0" style="stop-color:#6AB883"/>
				<stop  offset="1" style="stop-color:#DBB883"/>
			</linearGradient>
			<path style="fill:url(#SVGID_00000033338168209346987370000011578563897742478261_);" d="M623.256,399.071
				c12.387-27.285,21.049-51.978,26.555-74.294c-8.822-18.588-30.575-12.043-30.575-12.043s-0.034-38.904-19.433-44.583
				c-19.399-5.678-30.167,20.843-30.167,20.843s8.211-34.366-8.401-44.579c-38.307-23.551-81.71,49.925-81.71,49.925
				c-37.409-55.376-148.167,7.17-148.167,7.17c-49.849-59.212-124.867,6.673-124.867,6.673s-17.505-89.315-73.994-74.298
				c-16.391,4.357-26.754,17.14-33.017,34.154c-4.987,69.834,16.564,131.031,16.564,131.031H623.256z"/>
			
				<linearGradient id="SVGID_00000155122283684954847210000013565417897666346625_" gradientUnits="userSpaceOnUse" x1="139.5898" y1="325.8881" x2="159.2306" y2="234.4037">
				<stop  offset="0.1597" style="stop-color:#187D38"/>
				<stop  offset="1" style="stop-color:#187D38;stop-opacity:0"/>
			</linearGradient>
			<path style="opacity:0.63;fill:url(#SVGID_00000155122283684954847210000013565417897666346625_);" d="M180.479,355.497
				c5.341-42.555-17.581-56.798-17.581-56.798c1.905-33.842-13.013-44.071-13.013-44.071l-3.625,56.677h-9.652
				c0-31.011-11.471-59.581-16.981-71.52c-9.218,6.316-15.715,16.217-20.145,28.254c-4.987,69.834,16.564,131.031,16.564,131.031
				h60.363C177.217,386.427,178.486,371.371,180.479,355.497z"/>
			
				<linearGradient id="SVGID_00000137825883807358358960000013121704046172288394_" gradientUnits="userSpaceOnUse" x1="569.671" y1="417.562" x2="617.8068" y2="193.3513">
				<stop  offset="0" style="stop-color:#187D38"/>
				<stop  offset="1" style="stop-color:#187D38;stop-opacity:0"/>
			</linearGradient>
			<path style="fill:url(#SVGID_00000137825883807358358960000013121704046172288394_);" d="M619.236,312.734
				c0,0-0.034-38.904-19.433-44.583c-1.463-0.428-2.87-0.654-4.234-0.741c-5.176,7.704-12.707,20.844-16.247,36.363
				c0,0-41.317,15.076-65.902,95.297h109.835c12.387-27.285,21.049-51.978,26.555-74.294
				C640.989,306.188,619.236,312.734,619.236,312.734z"/>
		</g>
		<g>
			<polygon style="fill:#FF6026;" points="544.717,319.858 564.616,404.512 458.918,404.512 474.165,319.858 			"/>
			
				<linearGradient id="SVGID_00000135669159024878579760000003808273453298283687_" gradientUnits="userSpaceOnUse" x1="473.3125" y1="349.1262" x2="558.4764" y2="349.1262">
				<stop  offset="0.0334" style="stop-color:#000000"/>
				<stop  offset="1" style="stop-color:#000000;stop-opacity:0"/>
			</linearGradient>
			<path style="opacity:0.5;fill:url(#SVGID_00000135669159024878579760000003808273453298283687_);" d="M544.717,319.858h-70.552
				l-0.853,4.735c2.947,2.466,9.078,6.783,18.685,9.712c14.128,4.307,13.955,10.165,25.326,13.955
				c10.99,3.663,17.573,24.465,41.153,30.133L544.717,319.858z"/>
			<path style="fill:#FF6D6D;" d="M485.102,217.205c-11.528,3.693-32.776,53.311-32.776,53.311h20.804l13.309-17.056
				C486.438,253.46,493.873,219.512,485.102,217.205z"/>
			
				<linearGradient id="SVGID_00000073681388399204613600000017050217842035165624_" gradientUnits="userSpaceOnUse" x1="478.9062" y1="229.9229" x2="474.2545" y2="269.032">
				<stop  offset="0" style="stop-color:#F04F4F"/>
				<stop  offset="0.9465" style="stop-color:#F04F4F;stop-opacity:0.0535"/>
				<stop  offset="1" style="stop-color:#F04F4F;stop-opacity:0"/>
			</linearGradient>
			<path style="fill:url(#SVGID_00000073681388399204613600000017050217842035165624_);" d="M485.102,217.205
				c-5.142,1.647-12.217,12.432-18.479,23.874c1.492,8.102,3.39,19.726,4.034,29.437h2.472l13.309-17.056
				C486.438,253.46,493.873,219.512,485.102,217.205z"/>
			<path style="fill:#80371D;" d="M495.164,160.296c-3.816,0.452-13.817,7.18-13.442,13.18c0.129,2.068,4.522,4.523,4.652,6.655
				c0.129,2.132-3.941,6.525-3.683,11.306c0.258,4.781,4.393,7.365,3.618,11.048c-0.775,3.683-4.006,10.402,3.424,12.211
				c7.43,1.809,13.761-1.292,13.761-1.292l-3.812-33.338l-3.489-19.253L495.164,160.296z"/>
			<polygon style="fill:#FF6D6D;" points="499.295,194.085 499.812,206.296 513.204,205.392 511.032,188.142 			"/>
			
				<linearGradient id="SVGID_00000097473192780638879280000017127529951581557932_" gradientUnits="userSpaceOnUse" x1="499.2948" y1="195.2899" x2="511.5882" y2="195.2899">
				<stop  offset="0" style="stop-color:#F04F4F"/>
				<stop  offset="0.9465" style="stop-color:#F04F4F;stop-opacity:0.0535"/>
				<stop  offset="1" style="stop-color:#F04F4F;stop-opacity:0"/>
			</linearGradient>
			<path style="fill:url(#SVGID_00000097473192780638879280000017127529951581557932_);" d="M511.588,192.559l-0.556-4.418
				l-11.737,5.944l0.353,8.353C505.621,201.727,509.753,195.797,511.588,192.559z"/>
			<path style="fill:#FF6D6D;" d="M495.612,164.947l-5.168,8.812c-1.007,1.717-1.331,3.747-0.906,5.692
				c0.634,2.909,1.658,7.383,2.715,11.081c1.723,6.03,6.978,6.461,10.337,4.996c3.36-1.464,8.442-7.064,8.442-7.064l-3.101-15.764
				L495.612,164.947z"/>
			<path style="fill:#0F3D85;" d="M512.84,202.495c0,0-11.413,1.281-14.191,1.087c-2.778-0.194-3.36,0.517-3.166,1.874
				c0.194,1.357,0.388,5.233,0.388,5.233s-4.638,2.684-8.867,5.18c-2.803,1.654-4.986,4.18-6.189,7.204
				c-2.28,5.73-5.389,15.49-3.68,22.786c1.507,6.437,8.017,10.4-0.492,39.344c-8.51,28.944-9.371,36.525-9.371,36.525
				s35.663,14.558,82.181,0l-11.199-68.527c0,0,23.517-17.186,11.199-27.006c-7.163-5.71-13.262-10.472-16.626-12.792
				C525.625,208.437,512.84,202.495,512.84,202.495z"/>
			
				<linearGradient id="SVGID_00000150814794629110085030000006532747467952641191_" gradientUnits="userSpaceOnUse" x1="567.0313" y1="316.6688" x2="444.2771" y2="250.7691">
				<stop  offset="0.0334" style="stop-color:#000000"/>
				<stop  offset="1" style="stop-color:#000000;stop-opacity:0"/>
			</linearGradient>
			<path style="opacity:0.5;fill:url(#SVGID_00000150814794629110085030000006532747467952641191_);" d="M530.885,240.12
				c-3.228,13.986-6.07,15.537-7.362,27.941c-1.292,12.405-13.18,16.539-16.281,21.708c-3.101,5.169-4.059,13.18-13.659,16.798
				c-7.465,2.813-16.05,12.968-19.501,17.347c12.48,3.417,40.943,8.589,75.369-2.186l-11.199-68.527c0,0,0.419-0.308,1.104-0.852
				L530.885,240.12z"/>
			<path style="fill:#0C3069;" d="M494.29,179.247c0,0.571-0.463,1.034-1.034,1.034c-0.571,0-1.034-0.463-1.034-1.034
				c0-0.571,0.463-1.034,1.034-1.034C493.828,178.214,494.29,178.676,494.29,179.247z"/>
			<circle style="fill:#0C3069;" cx="499.949" cy="177.352" r="1.034"/>
			<polyline style="fill:none;stroke:#D92727;stroke-width:0.5169;stroke-miterlimit:10;" points="496.603,178.127 496.603,183.554 
				499.295,183.339 			"/>
			<path style="fill:none;stroke:#D92727;stroke-width:0.5169;stroke-miterlimit:10;" d="M495.698,187.043
				c0,0,3.576-0.629,7.494-2.886"/>
			<path style="fill:#80371D;" d="M495.164,165.712c0,0,1.655,6.557,11.044,8.452c0,0-0.862,7.15,2.843,10.768
				c3.704,3.618-2.876,16.957,1.981,22.742c3.833,4.566,15.85,2.886,21.794,5.729c0,0-3.618-17.971-6.59-23.845
				c0,0,2.455-7.425-1.163-15.953c0,0,0.646-12.792-9.95-14.085c-10.596-1.292-16.403,0.258-19.96,0.775
				C491.606,160.813,495.164,165.712,495.164,165.712z"/>
			<path style="fill:none;stroke:#D92727;stroke-width:0.5169;stroke-miterlimit:10;" d="M490.974,177.352
				c0,0,1.033-1.766,3.316-0.689"/>
			<path style="fill:none;stroke:#D92727;stroke-width:0.5169;stroke-miterlimit:10;" d="M497.949,175.927
				c0,0,1.033-1.766,3.316-0.689"/>
		</g>
		<g>
			<polygon style="fill:#0C3069;" points="278.982,356.186 283.085,404.512 179.774,404.512 190.082,351.362 			"/>
			
				<linearGradient id="SVGID_00000118375258319136389800000006751525031640889759_" gradientUnits="userSpaceOnUse" x1="226.5646" y1="320.7181" x2="233.1115" y2="383.0861">
				<stop  offset="0" style="stop-color:#0C3069"/>
				<stop  offset="1" style="stop-color:#0C3069;stop-opacity:0"/>
			</linearGradient>
			<polygon style="fill:url(#SVGID_00000118375258319136389800000006751525031640889759_);" points="280.392,372.796 
				278.982,356.186 190.082,351.362 184.246,381.454 			"/>
			<path style="fill:#C92C2C;" d="M181.811,214.221c0,0,16.436-12.405,49.05-13.094c32.614-0.689,54.064,8.184,60.955,25.068
				c6.891,16.884,21.622,64.866,21.622,64.866l33.424-2.412v9.648c0,0-35.514,12.843-46.173,8.959
				c-10.659-3.884-21.363-30.322-21.363-30.322l0.313,76.299c0.018,4.373-3.463,7.959-7.835,8.061
				c-17.863,0.415-61.772,0.677-85.512-5.798c-18.952-5.169-5.169-7.925-4.479-16.54c0.689-8.614-3.101-8.614,0-39.97
				C184.912,267.63,181.811,214.221,181.811,214.221z"/>
			<path style="fill:none;stroke:#A61E1E;stroke-width:1.1288;stroke-miterlimit:10;" d="M220.455,202.937
				c-4.876,0.258-7.331,5.169-1.129,8.916c6.202,3.747,19.253,1.68,23.905-0.904"/>
			<path style="fill:none;stroke:#A61E1E;stroke-width:1.1288;stroke-miterlimit:10;" d="M273.187,231.646
				c0,0-2.583,14.155,4.479,28.427"/>
			<path style="fill:none;stroke:#A61E1E;stroke-width:1.1288;stroke-miterlimit:10;" d="M267.61,240.581
				c0,0-0.768,4.28,7.11,11.874"/>
			<path style="fill:#FF6D6D;" d="M240.001,180.195h-19.253l-2.568,24.452c-0.114,1.085,0.346,2.163,1.241,2.786
				c1.561,1.088,4.742,2.417,10.967,2.417c5.544,0,8.796-1.457,10.471-2.57c0.926-0.615,1.427-1.693,1.327-2.8L240.001,180.195z"/>
			
				<linearGradient id="SVGID_00000165932062560902341620000013418488900291404214_" gradientUnits="userSpaceOnUse" x1="230.2755" y1="182.0118" x2="232.0845" y2="202.4277">
				<stop  offset="0" style="stop-color:#F04F4F"/>
				<stop  offset="0.9465" style="stop-color:#F04F4F;stop-opacity:0.0535"/>
				<stop  offset="1" style="stop-color:#F04F4F;stop-opacity:0"/>
			</linearGradient>
			<path style="fill:url(#SVGID_00000165932062560902341620000013418488900291404214_);" d="M241.266,194.255l-1.265-14.06h-19.253
				l-0.292,2.784C222.205,185.964,227.997,193.673,241.266,194.255z"/>
			
				<linearGradient id="SVGID_00000159432325743288786180000004738746270873774738_" gradientUnits="userSpaceOnUse" x1="238.1691" y1="283.7834" x2="206.1238" y2="380.2641">
				<stop  offset="0.0334" style="stop-color:#000000"/>
				<stop  offset="1" style="stop-color:#000000;stop-opacity:0"/>
			</linearGradient>
			<path style="opacity:0.5;fill:url(#SVGID_00000159432325743288786180000004738746270873774738_);" d="M260.68,311.994
				c-5.961-6.039-12.539-8.528-25.719-14.73c-13.18-6.202-11.371-21.45-16.798-39.023c-5.427-17.573-21.597-29.104-21.597-29.104
				l-13.435,24.713c0.187,15.242-0.03,32.096-1.32,45.137c-3.101,31.356,0.689,31.356,0,39.971
				c-0.689,8.614-14.472,11.371,4.479,16.54c23.741,6.475,67.649,6.213,85.512,5.798c4.372-0.102,7.853-3.688,7.835-8.061
				l-0.065-15.988C269.875,331.136,265.197,316.57,260.68,311.994z"/>
			<path style="fill:#0C3069;" d="M239.182,160.726c7.753,2.929,15.764-2.326,16.453-9.82c0.689-7.494-6.256-12.146-14.37-10.337
				c0,0,1.362-4.652-5.099-4.652c-6.461,0-11.543,4.652-13.611,7.839c0,0-9.39-2.191-10.94,4.978c0,0-11.629,6.135-1.378,14.663
				c0,0-1.637,8.528,8.873,14.386L239.182,160.726z"/>
			<path style="fill:#FF6D6D;" d="M220.286,161.528c-1.021,2.754-1.88,7.124,0.021,12.047c0.173,0.447-0.271,0.871-0.706,0.671
				c-0.928-0.428-2.229-0.726-3.634-0.124c-2.714,1.163-0.646,10.983,6.978,7.882c0,0,7.107,6.461,16.798,2.843
				c9.691-3.618,5.685-10.983,3.489-15.894c-1.603-3.584-2.174-9.164-2.365-11.917c-0.039-0.562-0.721-0.794-1.111-0.388
				c-1.926,2.003-6.696,5.425-15.305,2.801C222.729,158.926,220.912,159.842,220.286,161.528z"/>
			<circle style="fill:#0C3069;" cx="231.594" cy="168.393" r="1.206"/>
			<circle style="fill:#0C3069;" cx="238.119" cy="167.187" r="1.206"/>
			<polyline style="fill:none;stroke:#D92727;stroke-width:0.5169;stroke-miterlimit:10;" points="235.672,168.113 237.352,172.571 
				235.349,173.153 			"/>
			<path style="fill:none;stroke:#D92727;stroke-width:0.5169;stroke-miterlimit:10;" d="M239.325,175.091
				c0,0-4.364,4.264-10.824,1.357"/>
			
				<line style="fill:none;stroke:#D92727;stroke-width:0.5169;stroke-miterlimit:10;" x1="229.276" y1="175.479" x2="227.855" y2="177.462"/>
			<path style="fill:none;stroke:#D92727;stroke-width:0.5169;stroke-miterlimit:10;" d="M216.742,178.192
				c0,0-0.678-2.261,0.711-2.714c1.389-0.452,3.941,0.743,3.553,4.426"/>
			
				<line style="fill:none;stroke:#D92727;stroke-width:0.5169;stroke-miterlimit:10;" x1="220.277" y1="176.564" x2="218.508" y2="177.244"/>
			
				<linearGradient id="SVGID_00000133508727512391636530000012935018235895936673_" gradientUnits="userSpaceOnUse" x1="231.2788" y1="173.9433" x2="224.5398" y2="173.9433">
				<stop  offset="0" style="stop-color:#F04F4F"/>
				<stop  offset="0.9465" style="stop-color:#F04F4F;stop-opacity:0.0535"/>
				<stop  offset="1" style="stop-color:#F04F4F;stop-opacity:0"/>
			</linearGradient>
			<path style="fill:url(#SVGID_00000133508727512391636530000012935018235895936673_);" d="M229.399,173.943
				c0,1.518-1.23,2.748-2.748,2.748c-1.518,0-2.748-1.23-2.748-2.748c0-1.518,1.23-2.748,2.748-2.748
				C228.168,171.195,229.399,172.426,229.399,173.943z"/>
			<path style="fill:none;stroke:#D92727;stroke-width:0.5169;stroke-miterlimit:10;" d="M228.27,164.255
				c0,0,1.51-2.068,4.235-1.034"/>
			<path style="fill:none;stroke:#D92727;stroke-width:0.5169;stroke-miterlimit:10;" d="M235.235,162.931
				c0,0,1.51-2.067,4.235-1.034"/>
		</g>
		<g>
			<path style="fill:#FF6D6D;" d="M295.566,242.218l-9.95,33.596l12.036-6.912l11.481,2.6c0,0-20.921,30.703-35.54,25.113
				c-7.317-2.798-10.073-10.777-5.938-26.859c4.135-16.082,15.205-43.001,16.331-47.589
				C283.987,222.168,294.729,228.688,295.566,242.218z"/>
			
				<linearGradient id="SVGID_00000159471934882759274470000000584343038457677454_" gradientUnits="userSpaceOnUse" x1="280.0241" y1="240.7306" x2="295.5662" y2="240.7306">
				<stop  offset="0" style="stop-color:#F04F4F"/>
				<stop  offset="0.9465" style="stop-color:#F04F4F;stop-opacity:0.0535"/>
				<stop  offset="1" style="stop-color:#F04F4F;stop-opacity:0"/>
			</linearGradient>
			<path style="fill:url(#SVGID_00000159471934882759274470000000584343038457677454_);" d="M290.509,259.293l5.057-17.075
				c-0.837-13.53-11.579-20.05-11.579-20.05c-0.385,1.567-1.93,5.742-3.963,11.198C284.384,236.714,289.48,249.332,290.509,259.293z
				"/>
			<polygon style="fill:#FF6D6D;" points="362.455,221.489 374.129,278.663 354.587,278.663 347.769,236.102 			"/>
			
				<linearGradient id="SVGID_00000180338255844209010340000018145894313171016343_" gradientUnits="userSpaceOnUse" x1="347.7691" y1="243.8766" x2="365.869" y2="243.8766">
				<stop  offset="0" style="stop-color:#F04F4F"/>
				<stop  offset="0.9465" style="stop-color:#F04F4F;stop-opacity:0.0535"/>
				<stop  offset="1" style="stop-color:#F04F4F;stop-opacity:0"/>
			</linearGradient>
			<path style="fill:url(#SVGID_00000180338255844209010340000018145894313171016343_);" d="M362.455,221.489l-14.686,14.613
				l4.832,30.163c-1.986-12.398,12-34.261,13.268-28.054l0,0L362.455,221.489z"/>
			<path style="fill:#1656BD;" d="M307.712,207.588l-0.646-1.421c0,0-9.433,2.455-27.006,14.86l13.826,20.028
				c0,0,2.972,25.972,6.202,41.607h48.456c0,0,4.91-36.482,5.944-42.081c0,0,10.983-15.032,13.438-21.622
				c0,0-16.92-8.931-27.48-12.017l-0.775,1.68L307.712,207.588z"/>
			<path style="fill:none;stroke:#0C3069;stroke-width:0.5169;stroke-miterlimit:10;" d="M293.886,241.055
				c0,0,1.68-8.27,1.68-14.343"/>
			<path style="fill:none;stroke:#0C3069;stroke-width:0.5169;stroke-miterlimit:10;" d="M354.149,238.668
				c-0.498-2.903-1.241-7.916-1.241-11.956"/>
			
				<linearGradient id="SVGID_00000164499686980620052410000001917958877624478142_" gradientUnits="userSpaceOnUse" x1="288.9367" y1="258.2737" x2="351.0715" y2="258.2737">
				<stop  offset="0" style="stop-color:#0C3069"/>
				<stop  offset="1" style="stop-color:#0C3069;stop-opacity:0"/>
			</linearGradient>
			<path style="fill:url(#SVGID_00000164499686980620052410000001917958877624478142_);" d="M351.072,264.136
				c-5.344,1.277-20.966,4.367-27.38-1.373c-7.796-6.978-9.519-4.393-18.822-7.882s-9.045-15.764-10.143-17.832
				c-1.091-2.054-5.731-3.151-5.79-3.165l4.95,7.17c0,0,2.972,25.972,6.202,41.607h48.456
				C348.544,282.662,349.738,273.796,351.072,264.136z"/>
			<path style="fill:#A83030;" d="M327.999,160.21c0,0-5.986-6.03-13.222-2.671c-7.236,3.36-10.509,14.418-10.596,21.251
				c-0.086,6.832-1.464,16.222,2.412,16.222c0,0,0.59,8.528,14.078,7.494c13.488-1.034,18.915-6.202,20.379-11.113
				c0,0,3.645-1.465,3.244-5.901S340.618,158.573,327.999,160.21z"/>
			<path style="fill:#FF6D6D;" d="M317.447,190.015l-0.641,12.535c-0.08,1.566-1.16,2.903-2.674,3.311l-6.419,1.728
				c0,0,1.67,10.337,14.79,10.337s17.169-9.303,17.169-9.303l-7.247-3.058c-1.305-0.551-2.169-1.813-2.211-3.229l-0.362-12.32
				H317.447z"/>
			
				<linearGradient id="SVGID_00000115492194321237417900000018446438158287295656_" gradientUnits="userSpaceOnUse" x1="317.2129" y1="195.3537" x2="330.1653" y2="195.3537">
				<stop  offset="0" style="stop-color:#F04F4F"/>
				<stop  offset="0.9465" style="stop-color:#F04F4F;stop-opacity:0.0535"/>
				<stop  offset="1" style="stop-color:#F04F4F;stop-opacity:0"/>
			</linearGradient>
			<path style="fill:url(#SVGID_00000115492194321237417900000018446438158287295656_);" d="M329.851,190.015h-12.405l-0.234,4.571
				c2.46,1.983,7.027,5.006,12.952,6.107L329.851,190.015z"/>
			<path style="fill:#FF6D6D;" d="M332.622,179.493c0,0,1.423-2.384,3.37-1.374c1.95,1.011-0.527,7.539-3.37,5.733
				C329.779,182.045,332.622,179.493,332.622,179.493z"/>
			<path style="fill:#FF6D6D;" d="M313.915,179.493c0,0-1.423-2.384-3.37-1.374c-1.95,1.011,0.527,7.539,3.37,5.733
				C316.758,182.045,313.915,179.493,313.915,179.493z"/>
			<path style="fill:#FF6D6D;" d="M325.372,165.551c0,0-3.479,9.016-9.791,10.743c-1.127,0.308-1.899,1.332-1.772,2.493
				c0.244,2.246,0.625,5.702,0.897,7.932c0.431,3.532,4.206,6.57,9.374,6.57c5.169,0,8.126-4.125,8.694-6.873
				c0.362-1.753,0.51-5.837,0.57-9.081c0.049-2.621-1.245-5.059-3.39-6.565C328.126,169.487,326.107,167.671,325.372,165.551z"/>
			<g>
				<path style="fill:#0C3069;" d="M320.671,177.869c0,0.508-0.412,0.921-0.921,0.921c-0.509,0-0.921-0.412-0.921-0.921
					c0-0.508,0.412-0.921,0.921-0.921C320.258,176.948,320.671,177.361,320.671,177.869z"/>
				<path style="fill:#0C3069;" d="M328.1,177.869c0,0.508-0.412,0.921-0.921,0.921c-0.508,0-0.921-0.412-0.921-0.921
					c0-0.508,0.412-0.921,0.921-0.921C327.688,176.948,328.1,177.361,328.1,177.869z"/>
			</g>
			<path style="fill:none;stroke:#D92727;stroke-width:0.5169;stroke-miterlimit:10;" d="M322.948,178.37l-0.443,3.543
				c-0.022,0.177,0.116,0.333,0.295,0.333h1.344"/>
			<path style="fill:none;stroke:#D92727;stroke-width:0.5169;stroke-miterlimit:10;" d="M320.162,185.057
				c0,0,5.282,1.938,7.963-2.358"/>
			<path style="fill:none;stroke:#D92727;stroke-width:0.5169;stroke-miterlimit:10;" d="M327.18,182.391
				c0,0,1.293,0.021,1.638,0.991"/>
			
				<linearGradient id="SVGID_00000169523173856340532630000012399070785358405055_" gradientUnits="userSpaceOnUse" x1="318.8293" y1="187.7623" x2="318.8293" y2="181.6499">
				<stop  offset="0" style="stop-color:#F04F4F"/>
				<stop  offset="0.9465" style="stop-color:#F04F4F;stop-opacity:0.0535"/>
				<stop  offset="1" style="stop-color:#F04F4F;stop-opacity:0"/>
			</linearGradient>
			<path style="fill:url(#SVGID_00000169523173856340532630000012399070785358405055_);" d="M320.845,183.761
				c0,1.113-0.902,2.016-2.016,2.016s-2.016-0.902-2.016-2.016c0-1.113,0.902-2.016,2.016-2.016S320.845,182.648,320.845,183.761z"
				/>
			<path style="fill:none;stroke:#D92727;stroke-width:0.5169;stroke-miterlimit:10;" d="M325.343,175.731c0,0,1.827-1.34,3.958,0"
				/>
			<path style="fill:none;stroke:#D92727;stroke-width:0.5169;stroke-miterlimit:10;" d="M317.213,175.731c0,0,1.827-1.34,3.958,0"
				/>
		</g>
		<g>
			
				<linearGradient id="SVGID_00000038409216401135259820000016705398574258855852_" gradientUnits="userSpaceOnUse" x1="378.6087" y1="300.451" x2="378.6087" y2="420.3632">
				<stop  offset="0.2838" style="stop-color:#FFA526"/>
				<stop  offset="1" style="stop-color:#FF6026"/>
			</linearGradient>
			<path style="fill:url(#SVGID_00000038409216401135259820000016705398574258855852_);" d="M472.722,404.512H284.495
				c-3.757,0-6.803-3.046-6.803-6.803V275.225c0-3.957,3.208-7.164,7.164-7.164h187.506c3.957,0,7.164,3.207,7.164,7.164v122.484
				C479.526,401.466,476.48,404.512,472.722,404.512z"/>
			
				<linearGradient id="SVGID_00000142150761130598666590000001629597907373674638_" gradientUnits="userSpaceOnUse" x1="378.6087" y1="272.4544" x2="378.6087" y2="386.6903">
				<stop  offset="0.0334" style="stop-color:#000000"/>
				<stop  offset="1" style="stop-color:#000000;stop-opacity:0"/>
			</linearGradient>
			<path style="opacity:0.5;fill:url(#SVGID_00000142150761130598666590000001629597907373674638_);" d="M474.076,302.693
				l-89.846,56.735c-3.434,2.168-7.808,2.168-11.242,0l-89.846-56.735c-3.393-2.142-5.45-5.875-5.45-9.887v-14.142h201.834v14.142
				C479.526,296.818,477.468,300.55,474.076,302.693z"/>
			<path style="fill:#FFA526;" d="M473.767,292.285l-89.538,56.54c-3.434,2.168-7.808,2.168-11.242,0l-89.538-56.54
				c-3.585-2.263-5.758-6.207-5.758-10.446v-6.614c0-3.957,3.208-7.164,7.164-7.164h187.506c3.957,0,7.164,3.207,7.164,7.164v6.614
				C479.526,286.079,477.352,290.022,473.767,292.285z"/>
			<g style="opacity:0.5;">
				
					<linearGradient id="SVGID_00000145766992509673757030000000643406374048781240_" gradientUnits="userSpaceOnUse" x1="378.6086" y1="297.0052" x2="378.6086" y2="387.2309">
					<stop  offset="0.0334" style="stop-color:#000000"/>
					<stop  offset="1" style="stop-color:#000000;stop-opacity:0"/>
				</linearGradient>
				<path style="fill:url(#SVGID_00000145766992509673757030000000643406374048781240_);" d="M409.113,339.186
					c0,3.586-0.573,6.868-1.719,9.844c-1.146,2.977-2.764,5.312-4.857,7.005c-2.092,1.695-4.52,2.541-7.284,2.541
					c-1.843,0-3.475-0.442-4.894-1.326c-1.42-0.883-2.442-2.048-3.064-3.493h-0.598c-2.69,3.213-6.115,4.819-10.274,4.819
					c-4.408,0-7.883-1.326-10.424-3.978c-2.54-2.653-3.811-6.283-3.811-10.891c0-5.255,1.669-9.49,5.007-12.702
					c3.337-3.213,7.696-4.819,13.075-4.819c2.142,0,4.502,0.205,7.08,0.616c2.578,0.411,4.701,0.904,6.37,1.476l-0.859,18.269
					c0,3.463,0.946,5.193,2.84,5.193c1.593,0,2.864-1.164,3.811-3.493c0.946-2.329,1.419-5.373,1.419-9.134
					c0-4.011-0.835-7.553-2.504-10.629c-1.669-3.076-4.016-5.423-7.042-7.043c-3.025-1.618-6.482-2.428-10.367-2.428
					c-5.031,0-9.402,1.034-13.113,3.101c-3.711,2.067-6.557,5.049-8.537,8.947c-1.98,3.899-2.97,8.4-2.97,13.506
					c0,6.874,1.836,12.148,5.51,15.822c3.674,3.674,8.997,5.511,15.971,5.511c2.64,0,5.542-0.293,8.705-0.878
					c3.163-0.585,6.276-1.439,9.34-2.559v7.174c-5.33,2.265-11.246,3.399-17.746,3.399c-9.465,0-16.844-2.49-22.136-7.471
					c-5.293-4.982-7.939-11.905-7.939-20.772c0-6.152,1.351-11.737,4.054-16.757c2.702-5.018,6.55-8.953,11.544-11.805
					c4.993-2.852,10.741-4.278,17.241-4.278c5.48,0,10.374,1.122,14.683,3.363c4.309,2.242,7.634,5.43,9.975,9.564
					C407.942,329.011,409.113,333.781,409.113,339.186z M370.856,343.856c0,5.255,2.142,7.882,6.426,7.882
					c2.242,0,3.948-0.79,5.119-2.372c1.17-1.581,1.88-4.152,2.129-7.715l0.486-8.257c-1.27-0.274-2.702-0.411-4.296-0.411
					c-3.113,0-5.536,0.971-7.266,2.914C371.721,337.84,370.856,340.493,370.856,343.856z"/>
			</g>
			<g>
				<path style="fill:#FFFFFF;" d="M409.113,336.343c0,3.586-0.573,6.868-1.719,9.844c-1.146,2.977-2.764,5.312-4.857,7.005
					c-2.092,1.695-4.52,2.541-7.284,2.541c-1.843,0-3.475-0.442-4.894-1.326c-1.42-0.883-2.442-2.048-3.064-3.493h-0.598
					c-2.69,3.213-6.115,4.819-10.274,4.819c-4.408,0-7.883-1.326-10.424-3.978c-2.54-2.653-3.811-6.283-3.811-10.89
					c0-5.255,1.669-9.49,5.007-12.702c3.337-3.213,7.696-4.819,13.075-4.819c2.142,0,4.502,0.205,7.08,0.616
					c2.578,0.411,4.701,0.904,6.37,1.476l-0.859,18.269c0,3.463,0.946,5.193,2.84,5.193c1.593,0,2.864-1.164,3.811-3.493
					c0.946-2.329,1.419-5.374,1.419-9.134c0-4.011-0.835-7.553-2.504-10.629c-1.669-3.076-4.016-5.423-7.042-7.043
					c-3.025-1.618-6.482-2.428-10.367-2.428c-5.031,0-9.402,1.034-13.113,3.101c-3.711,2.067-6.557,5.049-8.537,8.947
					c-1.98,3.899-2.97,8.4-2.97,13.506c0,6.874,1.836,12.148,5.51,15.822c3.674,3.674,8.997,5.511,15.971,5.511
					c2.64,0,5.542-0.293,8.705-0.878c3.163-0.585,6.276-1.439,9.34-2.559v7.173c-5.33,2.265-11.246,3.399-17.746,3.399
					c-9.465,0-16.844-2.49-22.136-7.471c-5.293-4.982-7.939-11.905-7.939-20.772c0-6.152,1.351-11.737,4.054-16.757
					c2.702-5.018,6.55-8.953,11.544-11.805c4.993-2.852,10.741-4.278,17.241-4.278c5.48,0,10.374,1.122,14.683,3.363
					c4.309,2.242,7.634,5.43,9.975,9.564C407.942,326.168,409.113,330.938,409.113,336.343z M370.856,341.013
					c0,5.255,2.142,7.882,6.426,7.882c2.242,0,3.948-0.79,5.119-2.372c1.17-1.581,1.88-4.152,2.129-7.714l0.486-8.257
					c-1.27-0.273-2.702-0.411-4.296-0.411c-3.113,0-5.536,0.971-7.266,2.914C371.721,334.998,370.856,337.651,370.856,341.013z"/>
			</g>
		</g>
		
			<linearGradient id="SVGID_00000157989715940107102220000006127165703159279507_" gradientUnits="userSpaceOnUse" x1="458.9133" y1="326.5653" x2="479.5257" y2="326.5653">
			<stop  offset="0.0334" style="stop-color:#000000"/>
			<stop  offset="1" style="stop-color:#000000;stop-opacity:0"/>
		</linearGradient>
		<path style="opacity:0.5;fill:url(#SVGID_00000157989715940107102220000006127165703159279507_);" d="M459.882,317.583
			c0,0,1.028,1.307,4.277,2.275l-5.246,4.25c0,0,2.023,1.855,7.128-0.655l-3.013,3.57c0,0,1.38,0.149,5.144-0.958l-2.626,3.363
			l13.979,8.076v-20.198l-11.059-1.679l-6.942,0.926L459.882,317.583z"/>
		
			<linearGradient id="SVGID_00000060028633865266506370000014929284975840712349_" gradientUnits="userSpaceOnUse" x1="306.1163" y1="302.4776" x2="272.1991" y2="338.1341">
			<stop  offset="0.0334" style="stop-color:#000000"/>
			<stop  offset="1" style="stop-color:#000000;stop-opacity:0"/>
		</linearGradient>
		<polygon style="opacity:0.5;fill:url(#SVGID_00000060028633865266506370000014929284975840712349_);" points="302.923,309.107 
			299.449,311.95 306.018,313.381 299.449,316.129 304.285,318.059 299.449,318.703 301.258,319.858 295.96,320.827 
			277.692,343.128 277.692,318.703 292.859,311.305 		"/>
		<path style="fill:#FF6D6D;" d="M255.973,316.804l21.201,0.627c0,0,9.283-5.394,12.169-6.649c2.885-1.255,11.04-3.262,13.549-2.384
			c2.509,0.878-9.033,2.885-9.033,2.885s6.266-1.537,12.02,2.097c1.359,0.858-7.629-0.842-11.267,0.036
			c0,0,10.227,4.102,9.534,4.642c-1.089,0.849-9.455-1.962-9.455-1.962s7.914,3.069,7.699,3.762c-0.249,0.8-4.575-0.272-6.9-0.911
			c-0.807-0.222-1.651,0.075-2.159,0.74c-1.329,1.742-4.773,4.728-12.336,3.64l-26.277,5.896L255.973,316.804z"/>
		
			<linearGradient id="SVGID_00000027572061664597895220000003395153740949564091_" gradientUnits="userSpaceOnUse" x1="254.7188" y1="323.0139" x2="266.6413" y2="323.0139">
			<stop  offset="0" style="stop-color:#F04F4F"/>
			<stop  offset="0.9465" style="stop-color:#F04F4F;stop-opacity:0.0535"/>
			<stop  offset="1" style="stop-color:#F04F4F;stop-opacity:0"/>
		</linearGradient>
		<polygon style="fill:url(#SVGID_00000027572061664597895220000003395153740949564091_);" points="266.641,317.12 255.973,316.804 
			254.719,329.224 260.301,327.971 		"/>
		<g>
			<path style="fill:#C92C2C;" d="M181.811,214.221c-15.85,10.423-18.435,33.165-10.94,53.84
				c7.495,20.674,12.405,38.506,19.382,49.102c6.892,10.466,18.162,26.226,63.717,14.657c1.093-0.278,1.966-1.112,2.285-2.194
				c0.815-2.768,2.114-8.394,1.19-13.755c0,0-5.944-4.652-10.337-3.876c-4.393,0.775-10.108-3.925-13.195-2.738
				c-3.086,1.187-3.216-1.914-5.348-1.914c0,0-10.035-32.304-16.262-46.776C206.076,246.094,196.628,222.663,181.811,214.221z"/>
			<path style="fill:#FFA526;" d="M194.794,323.397c4.929,5.811,12.507,11.396,26.779,12.338
				C219.969,324.575,207.307,316.458,194.794,323.397z"/>
			
				<line style="fill:none;stroke:#A61E1E;stroke-width:1.1288;stroke-miterlimit:10;" x1="227.725" y1="308.183" x2="222.643" y2="311.305"/>
			<path style="fill:none;stroke:#A61E1E;stroke-width:1.1288;stroke-miterlimit:10;" d="M231.429,310.099
				c0.862,2.24,2.757,5.513,3.963,5.255c1.206-0.258-0.861-3.015-0.861-3.015"/>
		</g>
		<path style="fill:#FF6D6D;" d="M298.086,268.061c0,0,4.91-3.876,9.626-5.233c4.716-1.357,13.826,1.034,16.733,5.621
			c2.907,4.587,4.522,7.688,3.941,8.27c-0.581,0.581-5.75-7.134-5.75-7.134s1.034,3.452,1.357,5.39s-0.452,3.683-0.905,5.039
			c-0.452,1.357-1.615-0.117-1.421-1.351c0.194-1.234,0.129-3.172-0.129-4.206c-0.258-1.034-2.067-4.846-2.067-4.846
			s1.002,3.23,0.533,5.75c-0.469,2.52-1.825,4.329-1.825,4.329s-1.016-0.968-0.56-2.369c0.603-1.852,0.625-4.932-0.409-7.258
			c0,0,0.194,5.169-2.584,7.107c0,0-0.711-0.582-0.258-1.938c0.452-1.357,0.84-4.523,0.84-4.523s-2.326-0.517-5.492-2.649H298.086z"
			/>
		<path style="fill:#FF6D6D;" d="M538.381,226.798c12.405-3.025,14.478,5.176,18.822,29.236c4.479,24.809,2.102,42.411-4.996,51.341
			c-10.682,13.438-66.503,15.334-66.503,15.334s-5.255,4.652-13.18,3.015c0,0-6.202,4.307-6.978,3.704
			c-0.775-0.603,3.36-4.307,6.116-5.858c0,0-5.353,0.667-7.839,3.015c-1.551,1.464-1.877-0.979,0.345-3.015
			c3.101-2.843,6.978-2.627,6.978-2.627s-3.76-0.886-7.839,1.034c-2.197,1.034-3.36,2.907-4.393,2.132
			c-1.034-0.775,2.867-3.98,4.716-5.039c2.218-1.271,5.944-1.292,5.944-1.292s-4.135-1.098-5.815-0.969
			c-1.68,0.129-2.843,1.421-3.876,0.775c-1.034-0.646,1.179-2.536,3.726-3.015c4.35-0.818,9.777,0.625,9.777,0.625l10.402-0.194
			l53.297-18.711c0,0-5.122-36.464-5.897-44.906C530.391,242.706,529.8,228.89,538.381,226.798z"/>
		<g>
			<path style="fill:#D92727;" d="M619.644,218.857l-12.672-27.531c-1.062-2.308-3.58-3.574-6.066-3.051l-2.128,0.448
				c-1.104,0.232-2.187-0.474-2.419-1.577l-0.944-4.485c-0.187-0.888-1.059-1.457-1.947-1.27l-1.303,0.274
				c-0.888,0.187-1.457,1.059-1.27,1.947l0.944,4.485c0.232,1.104-0.474,2.186-1.578,2.419l-9.287,1.955
				c-1.104,0.232-2.186-0.474-2.419-1.577l-0.944-4.485c-0.187-0.888-1.059-1.457-1.947-1.27l-1.303,0.274
				c-0.888,0.187-1.457,1.059-1.27,1.947l0.944,4.485c0.232,1.104-0.474,2.187-1.578,2.419l-2.128,0.448
				c-2.486,0.523-4.28,2.697-4.321,5.237l-0.498,30.303c0.02,0.213,0.041,0.424,0.061,0.637l1.309,6.217
				c0.271,1.288,1.638,2.09,3.054,1.792l49.144-10.344c1.416-0.298,2.344-1.584,2.073-2.871l-1.309-6.217
				C619.778,219.261,619.711,219.06,619.644,218.857z"/>
			
				<linearGradient id="SVGID_00000081623270578470426590000011101715190355396030_" gradientUnits="userSpaceOnUse" x1="588.2928" y1="202.8331" x2="593.5211" y2="225.3896">
				<stop  offset="0.0334" style="stop-color:#000000"/>
				<stop  offset="1" style="stop-color:#000000;stop-opacity:0"/>
			</linearGradient>
			<path style="opacity:0.5;fill:url(#SVGID_00000081623270578470426590000011101715190355396030_);" d="M603.841,204.423
				c2.725,6.807-1.361,14.487-9.126,17.154c-7.765,2.667-16.27-0.689-18.995-7.496c-2.725-6.807,1.361-14.487,9.126-17.154
				C592.612,194.26,601.116,197.616,603.841,204.423z"/>
			
				<linearGradient id="SVGID_00000178171379793936101720000008675045547341996470_" gradientUnits="userSpaceOnUse" x1="565.8614" y1="229.8951" x2="621.2004" y2="229.8951">
				<stop  offset="0.0334" style="stop-color:#000000"/>
				<stop  offset="1" style="stop-color:#000000;stop-opacity:0"/>
			</linearGradient>
			<path style="opacity:0.5;fill:url(#SVGID_00000178171379793936101720000008675045547341996470_);" d="M565.861,232.255
				l1.021,4.85c0.271,1.288,1.638,2.09,3.054,1.792l49.144-10.344c1.416-0.298,2.344-1.584,2.073-2.871l-1.021-4.85L565.861,232.255
				z"/>
			<path style="fill:#FFFFFF;" d="M603.468,202.919c2.725,6.807-1.361,14.487-9.126,17.154c-7.766,2.667-16.27-0.689-18.995-7.495
				c-2.725-6.807,1.361-14.487,9.126-17.154C592.238,192.757,600.742,196.113,603.468,202.919z"/>
			<g style="opacity:0.5;">
				
					<linearGradient id="SVGID_00000122703166497954322620000017747160109862412450_" gradientUnits="userSpaceOnUse" x1="584.2304" y1="200.0069" x2="587.8044" y2="200.0069">
					<stop  offset="0.0334" style="stop-color:#000000"/>
					<stop  offset="1" style="stop-color:#000000;stop-opacity:0"/>
				</linearGradient>
				<path style="fill:url(#SVGID_00000122703166497954322620000017747160109862412450_);" d="M587.703,199.428
					c0.327,0.816-0.163,1.737-1.094,2.057c-0.931,0.32-1.951-0.083-2.277-0.899c-0.327-0.816,0.163-1.737,1.094-2.057
					C586.357,198.21,587.376,198.612,587.703,199.428z"/>
				
					<linearGradient id="SVGID_00000178166412405059559120000006760083057573866159_" gradientUnits="userSpaceOnUse" x1="590.73" y1="216.2411" x2="594.304" y2="216.2411">
					<stop  offset="0.0334" style="stop-color:#000000"/>
					<stop  offset="1" style="stop-color:#000000;stop-opacity:0"/>
				</linearGradient>
				<path style="fill:url(#SVGID_00000178166412405059559120000006760083057573866159_);" d="M594.203,215.662
					c0.327,0.816-0.163,1.737-1.094,2.057c-0.931,0.32-1.951-0.083-2.277-0.899c-0.327-0.816,0.163-1.737,1.094-2.057
					C592.856,214.444,593.876,214.846,594.203,215.662z"/>
				
					<linearGradient id="SVGID_00000178913901447073693300000014316158815928219012_" gradientUnits="userSpaceOnUse" x1="579.5225" y1="203.3226" x2="583.0958" y2="203.3226">
					<stop  offset="0.0334" style="stop-color:#000000"/>
					<stop  offset="1" style="stop-color:#000000;stop-opacity:0"/>
				</linearGradient>
				<path style="fill:url(#SVGID_00000178913901447073693300000014316158815928219012_);" d="M582.325,201.986
					c0.811,0.472,1.014,1.454,0.453,2.192c-0.561,0.738-1.674,0.954-2.485,0.482s-1.015-1.454-0.453-2.192
					C580.401,201.729,581.514,201.513,582.325,201.986z"/>
				
					<linearGradient id="SVGID_00000170957902598180279530000013221554157020209812_" gradientUnits="userSpaceOnUse" x1="595.6668" y1="212.7173" x2="599.2401" y2="212.7173">
					<stop  offset="0.0334" style="stop-color:#000000"/>
					<stop  offset="1" style="stop-color:#000000;stop-opacity:0"/>
				</linearGradient>
				<path style="fill:url(#SVGID_00000170957902598180279530000013221554157020209812_);" d="M598.469,211.38
					c0.812,0.472,1.015,1.454,0.453,2.192c-0.561,0.738-1.674,0.954-2.486,0.482c-0.811-0.472-1.014-1.454-0.453-2.192
					C596.545,211.124,597.658,210.908,598.469,211.38z"/>
				
					<linearGradient id="SVGID_00000016787870657768653330000017646200656744860607_" gradientUnits="userSpaceOnUse" x1="577.8094" y1="208.3949" x2="581.3824" y2="208.3949">
					<stop  offset="0.0334" style="stop-color:#000000"/>
					<stop  offset="1" style="stop-color:#000000;stop-opacity:0"/>
				</linearGradient>
				<path style="fill:url(#SVGID_00000016787870657768653330000017646200656744860607_);" d="M579.554,206.811
					c0.986-0.052,1.805,0.615,1.828,1.49c0.023,0.875-0.758,1.626-1.744,1.678c-0.986,0.052-1.805-0.615-1.828-1.49
					C577.787,207.614,578.568,206.863,579.554,206.811z"/>
				
					<linearGradient id="SVGID_00000153701782834068357600000016570158072042731196_" gradientUnits="userSpaceOnUse" x1="597.4319" y1="207.3618" x2="601.0049" y2="207.3618">
					<stop  offset="0.0334" style="stop-color:#000000"/>
					<stop  offset="1" style="stop-color:#000000;stop-opacity:0"/>
				</linearGradient>
				<path style="fill:url(#SVGID_00000153701782834068357600000016570158072042731196_);" d="M599.177,205.778
					c0.986-0.052,1.805,0.615,1.828,1.49c0.023,0.875-0.758,1.626-1.744,1.678c-0.986,0.052-1.805-0.615-1.828-1.49
					C597.409,206.581,598.19,205.829,599.177,205.778z"/>
				
					<linearGradient id="SVGID_00000065049120781041827010000002382707122304665226_" gradientUnits="userSpaceOnUse" x1="579.7455" y1="213.2865" x2="583.3186" y2="213.2865">
					<stop  offset="0.0334" style="stop-color:#000000"/>
					<stop  offset="1" style="stop-color:#000000;stop-opacity:0"/>
				</linearGradient>
				<path style="fill:url(#SVGID_00000065049120781041827010000002382707122304665226_);" d="M580.448,212.06
					c0.784-0.556,1.906-0.458,2.504,0.219c0.598,0.677,0.448,1.677-0.337,2.234c-0.784,0.556-1.906,0.458-2.504-0.219
					C579.513,213.616,579.664,212.616,580.448,212.06z"/>
				
					<linearGradient id="SVGID_00000116954462895080691480000014406770862346855841_" gradientUnits="userSpaceOnUse" x1="595.351" y1="202.2202" x2="598.9241" y2="202.2202">
					<stop  offset="0.0334" style="stop-color:#000000"/>
					<stop  offset="1" style="stop-color:#000000;stop-opacity:0"/>
				</linearGradient>
				<path style="fill:url(#SVGID_00000116954462895080691480000014406770862346855841_);" d="M596.054,200.994
					c0.784-0.556,1.905-0.458,2.504,0.219c0.599,0.677,0.448,1.677-0.337,2.234c-0.784,0.556-1.905,0.458-2.504-0.219
					C595.119,202.55,595.27,201.55,596.054,200.994z"/>
				
					<linearGradient id="SVGID_00000063623476522896897070000010069604128695187372_" gradientUnits="userSpaceOnUse" x1="584.5911" y1="216.1289" x2="588.165" y2="216.1289">
					<stop  offset="0.0334" style="stop-color:#000000"/>
					<stop  offset="1" style="stop-color:#000000;stop-opacity:0"/>
				</linearGradient>
				<path style="fill:url(#SVGID_00000063623476522896897070000010069604128695187372_);" d="M584.667,215.729
					c0.283-0.848,1.279-1.357,2.224-1.136c0.945,0.221,1.482,1.088,1.199,1.936c-0.283,0.848-1.279,1.356-2.224,1.136
					C584.921,217.444,584.384,216.577,584.667,215.729z"/>
				
					<linearGradient id="SVGID_00000137816910120802903810000016861638800283384489_" gradientUnits="userSpaceOnUse" x1="590.2189" y1="199.2562" x2="593.7928" y2="199.2562">
					<stop  offset="0.0334" style="stop-color:#000000"/>
					<stop  offset="1" style="stop-color:#000000;stop-opacity:0"/>
				</linearGradient>
				<path style="fill:url(#SVGID_00000137816910120802903810000016861638800283384489_);" d="M590.294,198.856
					c0.283-0.848,1.279-1.356,2.224-1.136c0.945,0.221,1.482,1.088,1.199,1.936c-0.283,0.848-1.278,1.357-2.224,1.136
					C590.548,200.571,590.011,199.704,590.294,198.856z"/>
			</g>
			<g>
				<path style="fill:#0C3069;" d="M587.643,199.121c0.327,0.816-0.163,1.737-1.094,2.057c-0.931,0.32-1.951-0.083-2.277-0.899
					c-0.327-0.816,0.163-1.737,1.094-2.057C586.297,197.903,587.317,198.305,587.643,199.121z"/>
				<path style="fill:#0C3069;" d="M594.143,215.355c0.327,0.816-0.163,1.737-1.094,2.057c-0.931,0.32-1.951-0.083-2.277-0.899
					c-0.327-0.816,0.163-1.737,1.094-2.057C592.797,214.137,593.816,214.539,594.143,215.355z"/>
				<path style="fill:#0C3069;" d="M582.265,201.679c0.812,0.472,1.015,1.454,0.453,2.192c-0.561,0.738-1.674,0.954-2.486,0.482
					c-0.811-0.472-1.014-1.454-0.453-2.192C580.341,201.422,581.454,201.207,582.265,201.679z"/>
				<path style="fill:#0C3069;" d="M598.41,211.074c0.812,0.472,1.015,1.454,0.453,2.192c-0.561,0.738-1.674,0.954-2.485,0.482
					c-0.812-0.472-1.015-1.454-0.453-2.192C596.485,210.817,597.598,210.601,598.41,211.074z"/>
				<path style="fill:#0C3069;" d="M579.494,206.504c0.986-0.052,1.805,0.615,1.828,1.49c0.023,0.875-0.758,1.626-1.744,1.678
					c-0.986,0.052-1.805-0.615-1.828-1.49C577.727,207.307,578.508,206.556,579.494,206.504z"/>
				<path style="fill:#0C3069;" d="M599.117,205.471c0.986-0.052,1.805,0.615,1.828,1.49c0.023,0.875-0.758,1.626-1.744,1.678
					c-0.986,0.052-1.805-0.615-1.828-1.49C597.35,206.274,598.13,205.523,599.117,205.471z"/>
				<path style="fill:#0C3069;" d="M580.389,211.753c0.784-0.556,1.905-0.458,2.504,0.219c0.598,0.677,0.448,1.677-0.337,2.234
					c-0.784,0.556-1.906,0.458-2.504-0.219S579.604,212.31,580.389,211.753z"/>
				<path style="fill:#0C3069;" d="M595.994,200.687c0.784-0.556,1.906-0.458,2.504,0.219c0.598,0.677,0.448,1.677-0.337,2.234
					c-0.784,0.556-1.906,0.458-2.504-0.219C595.059,202.243,595.21,201.243,595.994,200.687z"/>
				<path style="fill:#0C3069;" d="M584.607,215.422c0.283-0.848,1.278-1.357,2.224-1.136c0.945,0.221,1.482,1.088,1.199,1.936
					c-0.283,0.848-1.279,1.357-2.224,1.136C584.861,217.137,584.324,216.27,584.607,215.422z"/>
				<path style="fill:#0C3069;" d="M590.235,198.549c0.283-0.848,1.279-1.357,2.224-1.136c0.945,0.221,1.482,1.088,1.199,1.936
					c-0.283,0.848-1.279,1.357-2.224,1.136C590.489,200.264,589.952,199.398,590.235,198.549z"/>
			</g>
			<g>
				
					<linearGradient id="SVGID_00000054976005488326065750000017800002993362631100_" gradientUnits="userSpaceOnUse" x1="593.8585" y1="207.5393" x2="590.124" y2="186.0285">
					<stop  offset="0.0334" style="stop-color:#000000"/>
					<stop  offset="1" style="stop-color:#000000;stop-opacity:0"/>
				</linearGradient>
				<path style="fill:url(#SVGID_00000054976005488326065750000017800002993362631100_);" d="M593.469,181.39l-1.303,0.274
					c-0.888,0.187-1.457,1.059-1.27,1.947l0.944,4.485c0.232,1.104-0.474,2.186-1.577,2.419l-8.098,1.705l17.431-3.669l0,0
					l-0.817,0.172c-1.104,0.232-2.187-0.474-2.419-1.577l-0.944-4.485C595.229,181.772,594.357,181.203,593.469,181.39z"/>
				
					<linearGradient id="SVGID_00000139282390273368070560000000400347092998248584_" gradientUnits="userSpaceOnUse" x1="579.0214" y1="210.1153" x2="575.2869" y2="188.6045">
					<stop  offset="0.0334" style="stop-color:#000000"/>
					<stop  offset="1" style="stop-color:#000000;stop-opacity:0"/>
				</linearGradient>
				<path style="fill:url(#SVGID_00000139282390273368070560000000400347092998248584_);" d="M572.46,194.263l-1.166,0.245l0,0
					l9.682-2.038c-1.104,0.232-2.186-0.474-2.419-1.578l-0.944-4.485c-0.187-0.888-1.059-1.457-1.947-1.27l-1.302,0.274
					c-0.888,0.187-1.457,1.059-1.27,1.947l0.944,4.485C574.27,192.947,573.563,194.03,572.46,194.263z"/>
			</g>
		</g>
		<g>
			<path style="fill:#D92727;" d="M146.992,153.001c-0.833,0.991-1.884,2.244-2.862,3.417c-2.463,2.956-4.105,6.614-4.122,10.462
				c-0.025,5.882,2.06,12.84,6.299,19.69c4.239,6.849,9.535,11.82,14.81,14.422c3.451,1.702,7.457,1.865,11.202,0.98
				c1.487-0.352,3.077-0.733,4.336-1.036c1.131-0.272,1.607-1.608,0.914-2.543l-7.005-9.445c-0.921-1.242-2.641-1.572-3.956-0.758
				l-2.521,1.56c-0.729,0.451-1.666,0.433-2.33-0.11c-2.344-1.918-4.826-4.615-7.077-8.252c-2.251-3.637-3.556-7.061-4.227-10.015
				c-0.19-0.836,0.212-1.683,0.941-2.134l2.521-1.56c1.315-0.814,1.787-2.499,1.087-3.878l-5.327-10.484
				C149.148,152.28,147.74,152.11,146.992,153.001z"/>
			<g>
				<path style="fill:#FFA526;" d="M153.915,167.679c1.315-0.814,1.787-2.499,1.087-3.878l-5.327-10.483
					c-0.527-1.037-1.935-1.207-2.683-0.317c-0.18,0.214-0.398,0.474-0.596,0.709c1.759,4.249,4.105,9.112,6.945,14.324
					L153.915,167.679z"/>
				<path style="fill:#FFA526;" d="M175.754,201.152c0.299-0.072,0.628-0.151,0.901-0.217c1.131-0.272,1.607-1.608,0.914-2.542
					l-7.005-9.445c-0.921-1.242-2.641-1.572-3.956-0.758l-0.574,0.355C169.432,193.412,172.737,197.682,175.754,201.152z"/>
			</g>
		</g>
		<path style="fill:#A1C1ED;" d="M464.463,132.327c-0.867-7.656,12.327-10.501,20.355-11.52c3.374-0.429,6.121-2.859,6.997-6.145
			c1.768-6.637,6.452-17.139,18.606-19.893c12.569-2.848,22.023,6.23,26.346,11.562c1.634,2.015,4.194,3.003,6.758,2.607
			c6.053-0.936,17.185-0.643,22.879,12.175c1.156,2.603,3.551,4.44,6.377,4.787c6.724,0.826,18.026,2.944,17.272,7.805
			c-1.069,6.891-34.719,5.858-62.777,5.858S465.712,143.353,464.463,132.327z"/>
		<path style="fill:#A1C1ED;" d="M298.314,94.872c-20.941,0-77.392,0-97.058,0c-19.667,0-10.926-16.389,0-19.302
			c10.926-2.914,8.376-20.395,28.043-27.315c10.918-3.842,22.216,7.284,22.216,7.284s12.383-4.006,23.309,4.006
			c7.342,5.384,12.887,17.261,23.491,17.481C315.795,77.39,323.261,94.872,298.314,94.872z"/>
		<g>
			<g>
				
					<linearGradient id="SVGID_00000013878787389042564850000011224967332822152607_" gradientUnits="userSpaceOnUse" x1="124.247" y1="300.6393" x2="159.3429" y2="300.6393">
					<stop  offset="0.0428" style="stop-color:#FFA526"/>
					<stop  offset="1" style="stop-color:#FF6026"/>
				</linearGradient>
				<path style="fill:url(#SVGID_00000013878787389042564850000011224967332822152607_);" d="M151.137,353.782
					c0,0,16.321-58.81,2.928-53.674c5.117-24.222,0.113-52.682-10.243-52.612c-10.356,0.07-12.748,56.566-12.748,56.566
					s-13.643-3.312-2.355,42.975L151.137,353.782z"/>
				<path style="fill:none;stroke:#80371D;stroke-width:0.7753;stroke-miterlimit:10;" d="M143.821,247.497
					c0,0,1.359,57.335-5.586,102.404"/>
			</g>
			<g>
				
					<linearGradient id="SVGID_00000047781486464911678100000008742757290591383484_" gradientUnits="userSpaceOnUse" x1="95.6962" y1="255.1035" x2="108.79" y2="307.4791" gradientTransform="matrix(0.9962 -0.087 0.087 0.9962 -24.9596 10.1373)">
					<stop  offset="0.0428" style="stop-color:#FFA526"/>
					<stop  offset="1" style="stop-color:#FF6026"/>
				</linearGradient>
				<path style="fill:url(#SVGID_00000047781486464911678100000008742757290591383484_);" d="M137.148,347.242
					c0,0-12.53-43.404-22.616-77.839c-10.086-34.435-25.502-41.991-36.803-39.661c-11.301,2.329-2.299,33.812,18.499,80.988
					c12.797,29.027,28.189,50.386,28.189,50.386L137.148,347.242z"/>
				<path style="fill:none;stroke:#80371D;stroke-width:0.7753;stroke-miterlimit:10;" d="M77.729,229.742
					c0,0,29.393,62.729,52.735,124.785"/>
			</g>
			<g>
				
					<linearGradient id="SVGID_00000152224848662016051510000010469262629227890308_" gradientUnits="userSpaceOnUse" x1="93.4812" y1="324.6537" x2="115.4478" y2="368.5868">
					<stop  offset="0.0428" style="stop-color:#FFA526"/>
					<stop  offset="1" style="stop-color:#FF6026"/>
				</linearGradient>
				<path style="fill:url(#SVGID_00000152224848662016051510000010469262629227890308_);" d="M132.497,374.959
					c0,0-11.113-74.319-32.522-58.756c0,0-19.213-38.145-33.866-30.55c-13.238,6.861,15.681,41.285,15.681,41.285
					s-14.038,1.139-2.97,16.495c7.946,11.025,47.429,50.985,47.429,50.985L132.497,374.959z"/>
				<path style="fill:none;stroke:#80371D;stroke-width:0.7753;stroke-miterlimit:10;" d="M66.109,285.652
					c0,0,44.749,67.483,59.885,89.306"/>
			</g>
		</g>
		<g>
			<g>
				
					<linearGradient id="SVGID_00000081606420477116571890000013598941937888214432_" gradientUnits="userSpaceOnUse" x1="-400.5802" y1="308.2337" x2="-365.4832" y2="308.2337" gradientTransform="matrix(-0.942 -0.3355 -0.3355 0.942 353.8641 -115.6849)">
					<stop  offset="0.0428" style="stop-color:#FFA526"/>
					<stop  offset="1" style="stop-color:#FF6026"/>
				</linearGradient>
				<path style="fill:url(#SVGID_00000081606420477116571890000013598941937888214432_);" d="M584.636,350.106
					c0,0,4.358-60.877,15.252-51.544c3.307-24.535,17.57-49.665,27.303-46.124s-6.971,57.564-6.971,57.564
					s13.964,1.458-12.202,41.274L584.636,350.106z"/>
				<path style="fill:none;stroke:#80371D;stroke-width:0.7753;stroke-miterlimit:10;" d="M627.19,252.437
					c0,0-20.518,53.555-29.099,98.341"/>
			</g>
			<g>
				
					<linearGradient id="SVGID_00000107586139128725944940000007054408647247442339_" gradientUnits="userSpaceOnUse" x1="-423.0634" y1="265.461" x2="-409.9692" y2="317.8381" gradientTransform="matrix(-0.942 -0.3355 -0.3355 0.942 353.8641 -115.6849)">
					<stop  offset="0.0428" style="stop-color:#FFA526"/>
					<stop  offset="1" style="stop-color:#FF6026"/>
				</linearGradient>
				<path style="fill:url(#SVGID_00000107586139128725944940000007054408647247442339_);" d="M597.152,353.409
					c0,0,23.077-38.838,41.526-69.613c18.449-30.775,35.273-34.197,45.62-29.091c10.348,5.106-6.308,33.298-38.337,73.699
					c-19.708,24.859-39.991,41.642-39.991,41.642L597.152,353.409z"/>
				<path style="fill:none;stroke:#80371D;stroke-width:0.7753;stroke-miterlimit:10;" d="M684.299,254.705
					c0,0-44.27,53.282-82.516,107.439"/>
			</g>
			<g>
				
					<linearGradient id="SVGID_00000125596954242453078050000013659960477278450071_" gradientUnits="userSpaceOnUse" x1="-427.6968" y1="333" x2="-405.7291" y2="376.9354" gradientTransform="matrix(-0.9607 -0.2774 -0.2774 0.9607 325.9876 -98.8487)">
					<stop  offset="0.0428" style="stop-color:#FFA526"/>
					<stop  offset="1" style="stop-color:#FF6026"/>
				</linearGradient>
				<path style="fill:url(#SVGID_00000125596954242453078050000013659960477278450071_);" d="M593.062,377.215
					c0,0,31.294-68.32,47.546-47.428c0,0,29.041-31.317,41.011-19.956c10.815,10.265-26.518,35.314-26.518,35.314
					s13.171,4.989-1.722,16.672c-10.693,8.388-59.711,35.827-59.711,35.827L593.062,377.215z"/>
				<path style="fill:none;stroke:#80371D;stroke-width:0.7753;stroke-miterlimit:10;" d="M681.619,309.831
					c0,0-61.714,52.42-82.31,69.188"/>
			</g>
		</g>
		<g>
			
				<linearGradient id="SVGID_00000147188376863997749580000007598627238570026429_" gradientUnits="userSpaceOnUse" x1="202.883" y1="426.0588" x2="202.883" y2="287.7113">
				<stop  offset="0" style="stop-color:#6AB883"/>
				<stop  offset="1" style="stop-color:#DBB883"/>
			</linearGradient>
			<path style="fill:url(#SVGID_00000147188376863997749580000007598627238570026429_);" d="M309.714,411.662H122.328
				c-16.225,0-28.918-14.675-25.804-30.599c1.037-5.306,3.733-10.332,9.176-14.138c7.882-5.512,19.349,3.283,19.349,3.283
				s-9.599-41.826,9.66-47.506c19.259-5.68,45.634,37.531,45.634,37.531s-1.401-13.701,9.454-12.3
				c10.855,1.401,20.402,16.664,20.402,16.664s-1.639-10.506,8.694-10.856c10.333-0.35,19.434,19.754,19.434,19.754
				s19.43-1.751,26.243,12.606C264.571,386.101,299.723,385.751,309.714,411.662z"/>
			
				<linearGradient id="SVGID_00000146459673230379274740000004819561163177580457_" gradientUnits="userSpaceOnUse" x1="236.1952" y1="407.7971" x2="269.1716" y2="333.1017">
				<stop  offset="0.1597" style="stop-color:#187D38"/>
				<stop  offset="1" style="stop-color:#187D38;stop-opacity:0"/>
			</linearGradient>
			<path style="opacity:0.63;fill:url(#SVGID_00000146459673230379274740000004819561163177580457_);" d="M264.571,386.101
				c-6.813-14.356-26.243-12.606-26.243-12.606s-9.102-20.104-19.434-19.754c-10.333,0.35-8.694,10.856-8.694,10.856
				s-9.547-15.263-20.402-16.664c-0.872-0.113-1.656-0.118-2.377-0.051l0,0c10.153-0.311,24.108,22.142,27.554,33.571
				c0,0,9.903-10.888,18.893,9.273c0.745,1.67,3.166,1.51,3.708-0.237c1.313-4.232,3.269-9.49,5.191-10.739
				c5.973-3.88,12.514,0.319,17.863,14.463c1.311,3.466,5.15,5.209,8.678,4.074c9.317-2.996,26.921-5.229,40.407,13.374
				C299.723,385.751,264.571,386.101,264.571,386.101z"/>
		</g>
		<g>
			
				<linearGradient id="SVGID_00000062190469540996303550000016119471836106048696_" gradientUnits="userSpaceOnUse" x1="524.1523" y1="428.2132" x2="587.2094" y2="314.1593">
				<stop  offset="0" style="stop-color:#6AB883"/>
				<stop  offset="1" style="stop-color:#DBB883"/>
			</linearGradient>
			<path style="fill:url(#SVGID_00000062190469540996303550000016119471836106048696_);" d="M431.709,411.662h186.72
				c17.548,0,31.144-15.803,28.007-33.068c-0.455-2.505-1.148-4.406-2.166-5.288c-9.544-8.283-22.971,8.18-22.971,8.18
				s21.062-56.637,1.065-62.534c-19.996-5.898-56.328,39.312-56.328,39.312s19.426-41.297,8.155-39.843
				c-11.271,1.454-46.355,53.521-46.355,53.521s5.548-13.315-5.181-13.678c-10.728-0.364-16.825,13.769-16.825,13.769
				s-20.175-1.818-27.249,13.089C478.582,385.121,442.083,384.758,431.709,411.662z"/>
			
				<linearGradient id="SVGID_00000020369602814842338950000016645053572016553895_" gradientUnits="userSpaceOnUse" x1="536.2958" y1="471.399" x2="502.1831" y2="358.2068">
				<stop  offset="0" style="stop-color:#187D38"/>
				<stop  offset="1" style="stop-color:#187D38;stop-opacity:0"/>
			</linearGradient>
			<path style="fill:url(#SVGID_00000020369602814842338950000016645053572016553895_);" d="M459.669,403.478
				c15.506-21.966,34.371-4.91,34.371-4.91s12.146-19.641,20.674-20.174c8.528-0.534,6.461,17.849,6.461,17.849
				c4.135-17.056,31.529-48.068,40.06-51.818c8.531-3.75,4.801,13.839,4.801,13.839s19.426-41.297,8.155-39.843
				c-11.271,1.454-46.355,53.521-46.355,53.521s5.548-13.315-5.181-13.678c-10.728-0.364-16.825,13.769-16.825,13.769
				s-20.175-1.818-27.249,13.089c0,0-36.499-0.364-46.873,26.541C441.997,394.003,459.669,403.478,459.669,403.478z"/>
		</g>
		<path style="fill:#A1C1ED;" d="M316.813,120.941c0,0-4.025-5.786-10.513,0c0,0,9.199-1.383,10.513,5.549
			c1.314-6.931,10.513-5.549,10.513-5.549C320.838,115.156,316.813,120.941,316.813,120.941z"/>
		<path style="fill:#A1C1ED;" d="M446.782,146.834c0,0-4.025-5.786-10.513,0c0,0,9.199-1.383,10.513,5.549
			c1.314-6.931,10.513-5.549,10.513-5.549C450.807,141.048,446.782,146.834,446.782,146.834z"/>
	</g>
</g>
<g id="DESIGNED_BY_FREEPIK">
	<g>
		<g id="XMLID_319_">
			<g id="XMLID_338_">
				<path id="XMLID_346_" style="fill:#1D262D;" d="M385.104,465.465c-0.432,0.443-0.803,0.931-1.108,1.453l-0.465-0.241
					c-0.067-0.298-0.349-0.503-0.659-0.466c-0.331,0.039-0.568,0.339-0.529,0.67s0.339,0.568,0.67,0.529
					c0.065-0.008,0.127-0.026,0.184-0.052l0.451,0.234c-0.251,0.554-0.433,1.139-0.539,1.744l0.746,0.132
					c0.23-1.306,0.85-2.507,1.792-3.473L385.104,465.465z"/>
				<path id="XMLID_345_" style="fill:#1D262D;" d="M390.592,463.163c-0.171,0-0.341,0.006-0.51,0.017l-0.074-0.626
					c0.188-0.149,0.296-0.389,0.266-0.645c-0.046-0.393-0.402-0.674-0.795-0.628s-0.674,0.402-0.628,0.795
					c0.03,0.254,0.189,0.461,0.405,0.564l0.073,0.624c-0.714,0.116-1.403,0.332-2.06,0.646l0.327,0.684
					c0.934-0.447,1.942-0.673,2.995-0.673c0.496,0,0.993,0.053,1.475,0.158l0.161-0.741
					C391.693,463.222,391.142,463.163,390.592,463.163z"/>
				<path id="XMLID_344_" style="fill:#1D262D;" d="M397.194,465.711c0.331-0.04,0.566-0.341,0.525-0.672
					c-0.04-0.331-0.341-0.566-0.672-0.526c-0.309,0.038-0.535,0.304-0.53,0.609l-0.416,0.363c-0.418-0.43-0.89-0.813-1.408-1.139
					l-0.404,0.641c1.134,0.715,2.021,1.726,2.563,2.925l0.691-0.313c-0.251-0.554-0.568-1.072-0.942-1.545l0.402-0.351
					C397.065,465.716,397.129,465.719,397.194,465.711z"/>
				<path id="XMLID_343_" style="fill:#1D262D;" d="M390.044,473.372c-0.386,0.023-0.775,0.035-1.157,0.035
					c-0.88,0-1.733-0.061-2.478-0.179c-0.39-0.062-0.846-0.155-1.27-0.292c1.046,1.861,3.069,3.125,5.388,3.125
					c2.855,0,5.262-1.916,5.95-4.504c-0.682,0.449-1.505,0.825-2.459,1.123C392.839,473.047,391.464,473.286,390.044,473.372z"/>
				<path id="XMLID_339_" style="fill:#1D262D;" d="M390.592,464.68c-3.352,0-6.08,2.666-6.08,5.943
					c0,0.426,0.046,0.849,0.137,1.261c0.674,0.483,2.706,0.89,5.348,0.731c2.879-0.173,5.297-0.957,6.672-2.159
					c-0.005-0.195-0.021-0.39-0.045-0.582C396.244,466.913,393.65,464.68,390.592,464.68z M388.432,471.194
					c-1.02,0-1.85-0.83-1.85-1.85c0-1.02,0.83-1.85,1.85-1.85c1.02,0,1.85,0.83,1.85,1.85
					C390.282,470.365,389.452,471.194,388.432,471.194z M393.17,470.286c-0.75,0-1.36-0.61-1.36-1.36s0.61-1.361,1.36-1.361
					c0.75,0,1.361,0.61,1.361,1.361S393.92,470.286,393.17,470.286z"/>
			</g>
			<path id="XMLID_336_" style="fill:#1D262D;" d="M406.595,466.547c-0.295-0.116-0.806-0.309-1.382-0.237
				c-0.551,0.069-0.844,0.341-0.844,1.007v0.866h2.228v1.717h-2.228v5.455h-1.932v-5.455h-1.34v-1.717h1.34v-0.888
				c0-1.68,0.896-2.783,2.568-2.783c0.642,0,1.157,0.122,1.59,0.308L406.595,466.547z"/>
			<path id="XMLID_334_" style="fill:#1D262D;" d="M411.298,469.879c-0.177-0.03-0.358-0.046-0.526-0.046
				c-0.896,0-1.51,0.548-1.51,1.614v3.908h-1.932v-7.172h1.873v0.785c0.451-0.673,1.14-0.977,2.021-0.977
				c0.414,0,0.848,0.128,1.094,0.337L411.298,469.879z"/>
			<path id="XMLID_331_" style="fill:#1D262D;" d="M418.965,471.757c0,0.222-0.015,0.489-0.037,0.651h-5.085
				c0.207,1.036,0.933,1.488,1.843,1.488c0.622,0,1.295-0.252,1.813-0.688l1.132,1.243c-0.814,0.748-1.85,1.088-3.057,1.088
				c-2.198,0-3.723-1.495-3.723-3.753c0-2.258,1.48-3.797,3.627-3.797C417.544,467.99,418.958,469.522,418.965,471.757z
				 M413.851,471.091h3.175c-0.177-0.918-0.733-1.436-1.562-1.436C414.554,469.655,414.021,470.203,413.851,471.091z"/>
			<path id="XMLID_328_" style="fill:#1D262D;" d="M426.618,471.757c0,0.222-0.015,0.489-0.037,0.651h-5.085
				c0.207,1.036,0.932,1.488,1.843,1.488c0.622,0,1.295-0.252,1.813-0.688l1.132,1.243c-0.814,0.748-1.85,1.088-3.057,1.088
				c-2.198,0-3.723-1.495-3.723-3.753c0-2.258,1.48-3.797,3.627-3.797C425.197,467.99,426.611,469.522,426.618,471.757z
				 M421.504,471.091h3.175c-0.178-0.918-0.733-1.436-1.562-1.436C422.207,469.655,421.674,470.203,421.504,471.091z"/>
			<path id="XMLID_325_" style="fill:#1D262D;" d="M434.964,471.764c0,2.154-1.495,3.775-3.471,3.775
				c-0.962,0-1.643-0.378-2.109-0.933v3.708h-1.924v-10.133h1.887v0.792c0.466-0.585,1.155-0.984,2.139-0.984
				C433.469,467.99,434.964,469.61,434.964,471.764z M429.287,471.764c0,1.132,0.747,1.976,1.843,1.976
				c1.14,0,1.85-0.881,1.85-1.976c0-1.095-0.71-1.976-1.85-1.976C430.035,469.788,429.287,470.632,429.287,471.764z"/>
			<path id="XMLID_322_" style="fill:#1D262D;" d="M438.068,465.836c0,0.696-0.54,1.229-1.236,1.229
				c-0.696,0-1.229-0.533-1.229-1.229c0-0.696,0.533-1.243,1.229-1.243C437.527,464.592,438.068,465.14,438.068,465.836z
				 M437.809,475.354h-1.932v-7.172h1.932V475.354z"/>
			<path id="XMLID_320_" style="fill:#1D262D;" d="M441.032,470.736l2.702-2.554h2.368l-3.479,3.375l3.501,3.797h-2.376
				l-2.716-2.901v2.901H439.1v-10.658h1.932V470.736z"/>
		</g>
		<g>
			<path style="fill:#1D262D;" d="M309.412,475.289v-1.055c-0.527,0.718-1.391,1.23-2.387,1.23c-1.846,0-3.149-1.406-3.149-3.706
				c0-2.256,1.289-3.721,3.149-3.721c0.952,0,1.816,0.469,2.387,1.245v-3.765h1.099v9.77H309.412z M309.412,473.37v-3.208
				c-0.395-0.615-1.245-1.143-2.124-1.143c-1.421,0-2.27,1.172-2.27,2.739c0,1.567,0.85,2.724,2.27,2.724
				C308.168,474.483,309.017,473.986,309.412,473.37z"/>
			<path style="fill:#1D262D;" d="M311.932,471.744c0-2.051,1.465-3.706,3.486-3.706c2.139,0,3.398,1.67,3.398,3.794v0.279h-5.727
				c0.088,1.333,1.026,2.446,2.549,2.446c0.805,0,1.626-0.322,2.182-0.894l0.527,0.718c-0.703,0.703-1.655,1.084-2.812,1.084
				C313.44,475.465,311.932,473.956,311.932,471.744z M315.404,468.947c-1.509,0-2.256,1.274-2.315,2.358h4.643
				C317.718,470.25,317.015,468.947,315.404,468.947z"/>
			<path style="fill:#1D262D;" d="M319.607,474.351l0.571-0.791c0.469,0.542,1.362,1.011,2.329,1.011c1.084,0,1.67-0.513,1.67-1.216
				c0-1.714-4.38-0.659-4.38-3.281c0-1.098,0.952-2.036,2.636-2.036c1.201,0,2.051,0.454,2.622,1.026l-0.513,0.762
				c-0.424-0.513-1.201-0.894-2.109-0.894c-0.967,0-1.567,0.483-1.567,1.113c0,1.552,4.38,0.527,4.38,3.281
				c0,1.187-0.952,2.138-2.783,2.138C321.306,475.465,320.325,475.113,319.607,474.351z"/>
			<path style="fill:#1D262D;" d="M326.477,466.471c0-0.41,0.337-0.747,0.732-0.747c0.41,0,0.747,0.337,0.747,0.747
				c0,0.41-0.337,0.732-0.747,0.732C326.814,467.203,326.477,466.881,326.477,466.471z M326.667,475.289v-7.075h1.099v7.075H326.667
				z"/>
			<path style="fill:#1D262D;" d="M329.582,477.105l0.556-0.82c0.586,0.703,1.289,0.967,2.3,0.967c1.172,0,2.27-0.571,2.27-2.124
				v-1.011c-0.513,0.718-1.377,1.26-2.373,1.26c-1.845,0-3.149-1.377-3.149-3.662c0-2.27,1.289-3.677,3.149-3.677
				c0.952,0,1.802,0.469,2.373,1.245v-1.069h1.099v6.87c0,2.344-1.641,3.076-3.369,3.076
				C331.237,478.16,330.417,477.926,329.582,477.105z M334.709,473.253v-3.091c-0.381-0.615-1.23-1.143-2.109-1.143
				c-1.421,0-2.27,1.128-2.27,2.695c0,1.553,0.849,2.695,2.27,2.695C333.478,474.41,334.328,473.868,334.709,473.253z"/>
			<path style="fill:#1D262D;" d="M342.413,475.289v-4.629c0-1.245-0.63-1.641-1.582-1.641c-0.865,0-1.685,0.527-2.095,1.099v5.17
				h-1.099v-7.075h1.099v1.025c0.498-0.586,1.465-1.201,2.519-1.201c1.48,0,2.256,0.747,2.256,2.285v4.966H342.413z"/>
			<path style="fill:#1D262D;" d="M344.932,471.744c0-2.051,1.465-3.706,3.486-3.706c2.138,0,3.398,1.67,3.398,3.794v0.279h-5.727
				c0.088,1.333,1.025,2.446,2.549,2.446c0.806,0,1.626-0.322,2.183-0.894l0.527,0.718c-0.703,0.703-1.655,1.084-2.812,1.084
				C346.441,475.465,344.932,473.956,344.932,471.744z M348.404,468.947c-1.509,0-2.256,1.274-2.314,2.358h4.643
				C350.718,470.25,350.015,468.947,348.404,468.947z"/>
			<path style="fill:#1D262D;" d="M358.35,475.289v-1.055c-0.527,0.718-1.392,1.23-2.388,1.23c-1.845,0-3.149-1.406-3.149-3.706
				c0-2.256,1.289-3.721,3.149-3.721c0.952,0,1.817,0.469,2.388,1.245v-3.765h1.098v9.77H358.35z M358.35,473.37v-3.208
				c-0.396-0.615-1.245-1.143-2.124-1.143c-1.421,0-2.27,1.172-2.27,2.739c0,1.567,0.849,2.724,2.27,2.724
				C357.105,474.483,357.954,473.986,358.35,473.37z"/>
			<path style="fill:#1D262D;" d="M364.692,475.289v-9.77h1.099v3.765c0.572-0.776,1.421-1.245,2.388-1.245
				c1.845,0,3.149,1.465,3.149,3.721c0,2.299-1.304,3.706-3.149,3.706c-0.996,0-1.86-0.513-2.388-1.23v1.055H364.692z
				 M367.9,474.483c1.436,0,2.286-1.157,2.286-2.724c0-1.568-0.85-2.739-2.286-2.739c-0.864,0-1.728,0.527-2.109,1.143v3.208
				C366.171,473.986,367.036,474.483,367.9,474.483z"/>
			<path style="fill:#1D262D;" d="M372.529,477.061c0.161,0.073,0.425,0.117,0.601,0.117c0.483,0,0.806-0.161,1.055-0.747
				l0.469-1.069l-2.959-7.148h1.187l2.358,5.8l2.344-5.8h1.201l-3.545,8.51c-0.425,1.025-1.143,1.421-2.08,1.435
				c-0.234,0-0.601-0.044-0.806-0.103L372.529,477.061z"/>
		</g>
	</g>
</g>
</svg>
