<?xml version="1.0" standalone="no"?>
<!DOCTYPE svg PUBLIC "-//W3C//DTD SVG 20010904//EN"
 "http://www.w3.org/TR/2001/REC-SVG-20010904/DTD/svg10.dtd">
<svg version="1.0" xmlns="http://www.w3.org/2000/svg"
 width="2000.000000pt" height="2000.000000pt" viewBox="0 0 2000.000000 2000.000000"
 preserveAspectRatio="xMidYMid meet">

<g transform="translate(0.000000,2000.000000) scale(0.100000,-0.100000)"
fill="#000000" stroke="none">
<path d="M6870 17716 c-150 -22 -274 -61 -395 -124 -95 -50 -246 -165 -326
-248 -66 -69 -139 -160 -139 -174 0 -5 100 -88 222 -186 l222 -178 35 45 c125
158 277 269 400 290 122 22 229 -29 267 -126 42 -112 -14 -221 -284 -551 -114
-139 -162 -265 -161 -424 0 -81 31 -386 40 -394 2 -2 117 9 254 25 138 16 283
32 323 36 40 3 74 9 76 12 2 3 -3 56 -11 116 -28 216 0 312 137 475 40 47 97
114 127 150 68 80 143 206 174 291 21 57 24 80 24 219 -1 179 -13 236 -77 370
-33 68 -59 102 -127 171 -98 98 -197 154 -336 190 -104 27 -314 34 -445 15z"/>
<path d="M9105 16566 c-84 -27 -143 -74 -179 -144 -24 -47 -46 -167 -46 -249
0 -71 16 -202 25 -211 2 -2 32 16 67 40 101 72 157 91 274 96 90 4 107 1 163
-21 103 -42 172 -88 257 -173 75 -74 82 -85 88 -130 12 -89 -15 -183 -84 -289
-47 -72 -70 -134 -70 -185 0 -67 10 -76 32 -28 29 64 75 106 136 124 202 59
356 -181 216 -336 -19 -21 -51 -46 -70 -55 -45 -21 -133 -21 -175 0 -17 9 -32
15 -33 13 0 -2 1 -97 4 -212 l5 -210 92 98 c153 163 297 379 343 511 110 319
-38 686 -434 1080 -133 132 -217 197 -312 241 -116 54 -213 67 -299 40z"/>
<path d="M17140 16350 c8 -5 20 -10 25 -10 6 0 3 5 -5 10 -8 5 -19 10 -25 10
-5 0 -3 -5 5 -10z"/>
<path d="M8818 15919 c-21 -12 -24 -62 -5 -76 6 -6 28 -13 48 -17 20 -3 51
-20 69 -36 38 -34 61 -38 84 -14 22 21 20 46 -5 78 -39 49 -152 88 -191 65z"/>
<path d="M9221 15790 c-35 -8 -51 -24 -51 -51 0 -30 31 -44 99 -45 64 0 101
-12 129 -41 28 -28 82 -4 82 36 0 28 -36 67 -77 84 -49 19 -139 28 -182 17z"/>
<path d="M13680 15721 c-309 -84 -502 -387 -446 -699 45 -252 243 -453 491
-497 44 -8 93 -14 108 -15 27 0 28 1 20 33 -4 17 -8 73 -8 122 1 76 5 99 27
148 35 75 121 160 195 194 101 47 267 40 348 -13 21 -14 23 -13 29 17 10 50 7
193 -5 251 -6 29 -29 91 -51 137 -49 102 -159 219 -253 268 -136 71 -314 92
-455 54z"/>
<path d="M8799 15707 c-37 -28 -53 -109 -27 -135 18 -18 63 -14 83 8 25 28 32
102 10 123 -19 20 -44 21 -66 4z"/>
<path d="M9240 15588 c-35 -58 -19 -128 30 -128 30 0 70 56 70 99 0 44 -14 61
-52 61 -21 0 -33 -8 -48 -32z"/>
<path d="M8846 15479 c-65 -66 -117 -121 -115 -124 10 -9 142 -65 155 -65 31
0 11 28 -37 55 l-51 27 101 102 c56 56 101 107 101 114 0 32 -45 1 -154 -109z"/>
<path d="M7045 15507 c-114 -38 -200 -113 -249 -217 -29 -60 -31 -73 -31 -170
0 -99 2 -109 34 -172 124 -248 445 -301 640 -107 60 60 96 130 112 213 32 175
-65 358 -231 435 -66 30 -209 40 -275 18z"/>
<path d="M14570 14894 c-332 -71 -617 -312 -685 -579 -22 -86 -19 -224 5 -315
12 -41 43 -120 69 -175 54 -109 66 -143 62 -164 -1 -7 2 -10 7 -7 6 3 8 -2 6
-12 -9 -31 71 -116 130 -138 15 -6 17 -4 11 6 -5 9 -4 11 4 6 6 -4 9 -11 6
-16 -6 -9 146 -187 188 -221 21 -17 22 12 -18 -379 -17 -156 -17 -173 -5 -145
6 14 9 15 9 4 1 -8 -4 -20 -11 -27 -9 -9 -9 -12 0 -12 6 0 9 -6 6 -14 -3 -7 2
-20 10 -29 9 -9 16 -21 16 -27 0 -33 151 -177 171 -164 5 3 8 0 7 -6 -3 -10
50 -44 152 -97 25 -13 54 -20 65 -17 14 4 16 2 7 -4 -11 -8 24 -25 139 -67 15
-6 17 8 18 130 1 99 -2 141 -11 153 -10 12 -10 14 0 8 9 -6 12 48 12 253 l0
260 84 3 85 3 -48 110 c-41 95 -63 145 -95 215 -4 8 -34 65 -66 125 -33 61
-73 137 -89 170 -35 73 -81 236 -81 288 0 21 -4 46 -10 56 -8 16 0 24 53 56
156 94 240 158 338 255 106 105 179 211 179 260 0 39 -127 148 -238 204 -124
63 -326 84 -482 50z m-152 -1019 c-3 -3 -9 2 -12 12 -6 14 -5 15 5 6 7 -7 10
-15 7 -18z m-348 -19 c0 -2 -8 -10 -17 -17 -16 -13 -17 -12 -4 4 13 16 21 21
21 13z m317 -1088 c-3 -8 -6 -5 -6 6 -1 11 2 17 5 13 3 -3 4 -12 1 -19z m250
-312 c0 -8 -6 -12 -15 -9 -11 5 -11 7 0 14 7 5 13 9 14 9 0 0 1 -6 1 -14z"/>
<path d="M8610 14796 c0 -3 9 -10 20 -16 11 -6 20 -8 20 -6 0 3 -9 10 -20 16
-11 6 -20 8 -20 6z"/>
<path d="M9385 14763 c-16 -9 -25 -18 -18 -20 7 -3 22 5 35 16 26 25 23 26
-17 4z"/>
<path d="M8738 14763 c7 -3 16 -2 19 1 4 3 -2 6 -13 5 -11 0 -14 -3 -6 -6z"/>
<path d="M8686 14745 c10 -8 28 -14 39 -14 14 0 10 4 -14 14 -42 19 -50 19
-25 0z"/>
<path d="M8780 14756 c0 -2 7 -9 15 -16 13 -11 14 -10 9 4 -5 14 -24 23 -24
12z"/>
<path d="M8873 14733 c9 -2 23 -2 30 0 6 3 -1 5 -18 5 -16 0 -22 -2 -12 -5z"/>
<path d="M8745 14710 c-3 -4 8 -16 23 -26 24 -15 25 -15 13 -1 -12 15 -11 17
2 17 29 0 25 15 -4 16 -16 1 -32 -2 -34 -6z"/>
<path d="M8987 14709 c7 -7 15 -10 18 -7 3 3 -2 9 -12 12 -14 6 -15 5 -6 -5z"/>
<path d="M9290 14702 c0 -7 -11 -18 -25 -24 -14 -6 -25 -15 -25 -20 0 -4 23 6
50 23 28 17 50 31 50 32 0 1 -11 2 -25 2 -14 0 -25 -6 -25 -13z"/>
<path d="M9185 14700 l-20 -9 20 0 c11 0 27 4 35 9 13 9 13 10 0 9 -8 0 -24
-4 -35 -9z"/>
<path d="M9258 14703 c-10 -2 -18 -9 -18 -14 0 -6 8 -5 20 1 11 6 20 13 20 15
0 3 -1 4 -2 4 -2 -1 -11 -3 -20 -6z"/>
<path d="M8815 14690 c3 -5 8 -10 11 -10 2 0 4 5 4 10 0 6 -5 10 -11 10 -5 0
-7 -4 -4 -10z"/>
<path d="M8960 14690 c0 -5 5 -10 11 -10 5 0 7 5 4 10 -3 6 -8 10 -11 10 -2 0
-4 -4 -4 -10z"/>
<path d="M9043 14693 c9 -2 25 -2 35 0 9 3 1 5 -18 5 -19 0 -27 -2 -17 -5z"/>
<path d="M8855 14670 c3 -5 8 -10 11 -10 2 0 4 5 4 10 0 6 -5 10 -11 10 -5 0
-7 -4 -4 -10z"/>
<path d="M9010 14670 c-8 -5 -10 -10 -5 -10 6 0 17 5 25 10 8 5 11 10 5 10 -5
0 -17 -5 -25 -10z"/>
<path d="M8808 14663 c7 -3 16 -2 19 1 4 3 -2 6 -13 5 -11 0 -14 -3 -6 -6z"/>
<path d="M9180 14663 c8 -3 24 -10 35 -15 20 -9 20 -9 1 6 -11 9 -27 16 -35
15 -14 0 -14 -1 -1 -6z"/>
<path d="M8914 14619 c19 -15 31 -18 38 -11 12 12 2 32 -15 32 -7 0 -6 -4 3
-10 8 -5 11 -12 7 -16 -4 -4 -15 0 -25 9 -10 10 -22 17 -27 17 -4 0 4 -10 19
-21z"/>
<path d="M9098 14633 c6 -2 18 -2 25 0 6 3 1 5 -13 5 -14 0 -19 -2 -12 -5z"/>
<path d="M9130 14610 c-19 -11 -31 -19 -27 -20 11 0 67 29 67 35 0 7 -1 7 -40
-15z"/>
<path d="M8899 14601 c13 -12 28 -21 35 -21 12 0 -5 14 -39 31 -16 8 -15 6 4
-10z"/>
<path d="M9055 14610 l-20 -9 20 0 c11 0 29 4 40 9 l20 9 -20 0 c-11 0 -29 -4
-40 -9z"/>
<path d="M9050 14580 c-13 -9 -13 -10 0 -10 8 0 22 5 30 10 13 9 13 10 0 10
-8 0 -22 -5 -30 -10z"/>
<path d="M15330 14566 c0 -2 7 -23 15 -47 40 -113 86 -347 101 -512 6 -75 8
-79 68 -160 l62 -82 -7 -225 c-11 -336 16 -485 111 -627 17 -24 30 -47 30 -52
0 -4 7 -16 16 -27 8 -10 13 -13 9 -6 -11 21 4 13 16 -9 9 -17 8 -20 -2 -14 -6
5 1 -12 18 -36 16 -24 33 -52 36 -62 4 -11 12 -15 18 -11 7 4 9 3 5 -4 -9 -14
33 -84 47 -75 6 3 7 1 3 -6 -4 -6 7 -34 26 -64 52 -79 180 -282 205 -324 13
-21 27 -37 33 -36 5 2 6 -5 3 -14 -5 -12 -3 -14 7 -8 9 6 11 4 5 -4 -4 -8 1
-24 12 -39 39 -53 124 -195 119 -199 -3 -3 -153 77 -333 178 -180 100 -348
194 -373 207 -25 14 -58 34 -75 44 -16 10 -33 18 -36 18 -4 0 16 -69 43 -152
125 -390 241 -828 303 -1148 14 -74 29 -138 33 -141 4 -3 106 -36 227 -72
1334 -399 1265 -379 1360 -384 275 -15 508 174 547 442 11 80 11 87 -18 215
-12 57 -95 190 -131 213 -7 4 -13 14 -13 21 0 18 -35 48 -45 39 -4 -5 -5 -2
-1 5 8 14 -12 45 -24 37 -4 -3 -14 3 -21 12 -10 12 -10 14 -1 9 6 -4 12 -3 12
2 0 15 -28 34 -39 27 -6 -3 -8 0 -5 8 3 8 -7 30 -23 48 -16 19 -49 61 -73 94
-25 33 -47 62 -50 65 -3 3 -16 20 -29 38 -12 18 -27 30 -32 27 -5 -4 -6 0 -3
8 3 8 -3 21 -13 28 -10 8 -38 40 -62 72 -38 49 -46 56 -60 45 -14 -12 -14 -11
-2 5 17 22 7 34 -14 17 -10 -8 -15 -9 -15 -1 0 6 5 11 10 11 19 0 9 17 -65
111 -41 51 -96 120 -121 153 -36 45 -49 55 -56 45 -7 -11 -8 -9 -4 5 7 20 -20
59 -35 51 -4 -3 -11 0 -15 6 -4 8 -3 9 4 5 7 -4 12 -4 12 -1 0 10 -85 117
-114 144 -14 13 -23 27 -21 32 3 4 -3 14 -13 21 -11 7 -21 18 -23 23 -2 6 -7
9 -12 7 -4 -1 -6 1 -5 5 5 16 -24 54 -37 50 -7 -3 -12 1 -11 11 0 9 -5 16 -12
14 -8 -1 -11 2 -6 9 3 6 2 14 -3 18 -5 3 -22 24 -38 46 -46 62 -109 140 -117
143 -5 2 -8 9 -8 16 0 7 -9 21 -20 31 -20 18 -21 18 -14 -1 5 -15 4 -16 -4 -4
-6 8 -8 18 -5 23 3 5 1 12 -4 16 -5 3 -43 49 -83 101 -93 120 -132 165 -141
165 -4 0 -11 4 -16 9 -5 5 -3 6 5 2 16 -9 16 11 -1 21 -7 4 -21 21 -31 37 -13
20 -20 25 -26 16 -5 -9 -9 -9 -14 -1 -4 6 -2 11 3 11 6 0 11 3 11 8 0 13 -111
137 -120 135 -5 -2 -7 3 -4 11 3 7 -2 19 -11 26 -8 7 -15 18 -15 25 0 20 -59
147 -78 169 -9 11 -11 16 -4 12 13 -8 -16 64 -31 75 -5 3 -8 8 -6 10 5 7 -34
99 -40 95 -3 -2 -7 6 -7 17 -1 12 -16 51 -33 87 -18 36 -29 57 -27 47 4 -11 2
-16 -5 -12 -5 4 -7 15 -4 25 3 9 -10 51 -30 94 -19 42 -35 80 -35 85 0 5 -6
14 -14 20 -11 9 -15 9 -19 -1 -4 -9 -6 -9 -6 -1 -1 6 3 14 9 18 10 6 -8 55
-20 55 -4 0 -12 12 -19 27 -10 22 -14 24 -22 12 -9 -12 -10 -12 -6 1 13 47
-83 113 -264 181 -126 47 -149 54 -149 45z m583 -1943 c-3 -7 -6 -13 -8 -13
-2 0 -5 6 -8 13 -3 8 1 14 8 14 7 0 11 -6 8 -14z m1248 -450 c13 -16 12 -17
-3 -4 -17 13 -22 21 -14 21 2 0 10 -8 17 -17z m-640 -530 c13 -16 12 -17 -3
-4 -10 7 -18 15 -18 17 0 8 8 3 21 -13z m1367 -398 c-3 -3 -9 2 -12 12 -6 14
-5 15 5 6 7 -7 10 -15 7 -18z"/>
<path d="M9707 14520 c-3 -8 -7 -67 -9 -130 -3 -95 -8 -124 -27 -162 -42 -88
-181 -194 -334 -256 -64 -26 -73 -33 -202 -184 l-136 -157 -4 -133 c-2 -73
-10 -286 -17 -473 -17 -467 -18 -2501 0 -2920 26 -639 63 -1171 102 -1505 22
-185 50 -400 56 -429 5 -26 3 -32 -20 -42 -14 -7 -26 -16 -26 -21 0 -4 -3 -7
-7 -6 -16 4 -53 -23 -47 -34 4 -6 3 -8 -3 -5 -6 4 -16 0 -23 -8 -9 -11 -7 -18
9 -32 22 -19 28 -43 10 -43 -5 0 -8 4 -4 10 3 5 -3 18 -15 30 -23 23 -34 26
-27 7 3 -7 -5 -19 -16 -27 -21 -12 -21 -12 -8 6 14 18 14 18 -4 2 -16 -15 -17
-19 -4 -35 13 -16 12 -17 -2 -5 -23 18 -41 8 -96 -55 -111 -128 -192 -268
-244 -424 -63 -187 -59 6 -59 -3144 l0 -2880 386 -3 386 -2 -6 292 c-16 715
-59 1234 -151 1843 -27 171 -63 440 -69 505 -3 36 -13 137 -21 225 -48 516
-69 1350 -46 1850 12 263 43 662 62 790 40 283 83 477 133 600 27 69 58 125
69 125 4 0 7 6 7 14 0 7 10 21 23 30 l22 17 -30 -6 c-23 -4 -26 -3 -13 5 9 5
27 9 40 8 18 -2 22 1 20 16 -2 11 1 15 8 11 5 -3 26 4 46 16 28 17 33 24 22
31 -9 7 -8 8 6 4 22 -8 139 61 130 76 -4 6 -1 8 7 6 8 -3 28 2 44 10 l30 15
-27 9 c-16 6 -28 14 -28 19 0 5 14 2 30 -6 30 -15 33 -15 113 28 45 25 124 66
175 92 50 26 92 49 92 52 0 2 -4 1 -10 -2 -6 -3 -7 1 -4 9 7 18 21 21 26 6 2
-6 30 3 63 20 33 16 66 30 73 30 6 0 12 4 12 9 0 5 -10 7 -22 3 -13 -3 -19 -1
-15 6 4 5 1 13 -5 16 -7 3 -1 3 14 0 19 -4 29 0 38 13 10 16 10 16 5 -4 -9
-31 9 -36 52 -14 21 11 85 41 143 67 58 25 138 62 179 80 41 19 75 33 77 32 1
-2 5 -617 8 -1368 4 -751 9 -1525 11 -1720 2 -195 8 -1144 11 -2107 l7 -1753
24 0 23 0 0 468 c0 257 -5 1216 -10 2132 -5 916 -10 2386 -11 3268 -1 881 -5
1602 -10 1602 -4 0 -10 71 -11 158 l-4 157 -56 130 c-31 72 -91 213 -133 315
-53 127 -87 196 -110 220 -46 49 -64 90 -71 162 -5 45 -25 107 -70 213 -34 83
-133 319 -219 525 -86 206 -185 443 -220 525 -35 83 -83 200 -108 260 -26 61
-63 148 -83 195 -66 154 -73 216 -49 433 8 73 24 220 36 327 26 245 39 279
123 322 72 37 121 29 269 -46 72 -36 132 -64 134 -62 2 2 10 68 19 147 26 252
111 742 154 888 5 19 9 36 7 37 -7 7 -340 203 -379 224 -46 24 -47 26 -63 98
-25 110 -53 188 -116 322 -17 35 -29 50 -32 40z m539 -5839 c0 -16 -3 -17 -14
-9 -12 10 -7 19 13 28 1 0 1 -9 1 -19z m-12 -30 c2 -3 -10 -6 -27 -7 -18 -1
-26 1 -19 3 6 3 10 8 7 13 -3 4 4 6 15 3 11 -3 22 -8 24 -12z m-79 -11 c3 -6
-1 -7 -9 -4 -18 7 -21 14 -7 14 6 0 13 -4 16 -10z m-65 -30 c-8 -5 -11 -12 -8
-16 4 -4 19 1 32 10 29 18 36 20 36 7 0 -18 -57 -33 -79 -21 -24 12 -28 3 -6
-14 12 -9 9 -11 -19 -11 -19 0 -38 4 -43 9 -4 5 2 5 15 1 15 -4 22 -3 20 6 -2
7 8 18 22 26 28 14 53 18 30 3z m65 -40 c-3 -5 -16 -10 -28 -9 -20 1 -20 2 3
9 14 4 26 8 28 9 2 1 0 -3 -3 -9z m-160 -10 c3 -6 -1 -7 -9 -4 -18 7 -21 14
-7 14 6 0 13 -4 16 -10z m202 -32 c-3 -7 -5 -2 -5 12 0 14 2 19 5 13 2 -7 2
-19 0 -25z m-286 -3 c-18 -8 -36 -15 -40 -15 -13 1 45 29 59 29 8 0 0 -6 -19
-14z m79 5 c0 -12 -42 -30 -68 -30 -10 0 -1 8 18 19 42 22 50 24 50 11z m227
-42 c-3 -7 -5 -2 -5 12 0 14 2 19 5 13 2 -7 2 -19 0 -25z m-380 -3 c0 -8 -4
-12 -8 -10 -4 3 -21 -3 -39 -12 -22 -13 -30 -24 -27 -38 3 -19 -1 -21 -40 -20
-24 1 -43 -2 -43 -7 0 -5 -4 -6 -10 -3 -5 3 -21 -2 -35 -11 -14 -9 -28 -14
-31 -12 -2 3 22 19 56 36 33 17 60 27 60 22 0 -6 7 -10 15 -10 8 0 15 5 15 10
0 6 -5 10 -11 10 -7 0 12 13 42 29 30 17 54 30 55 30 0 1 1 -6 1 -14z m53 5
c-20 -13 -33 -13 -25 0 3 6 14 10 23 10 15 0 15 -2 2 -10z m105 0 c-3 -5 -16
-10 -28 -9 -20 1 -20 2 3 9 14 4 26 8 28 9 2 1 0 -3 -3 -9z m186 -43 c-13 -13
-15 11 -4 40 7 16 8 15 11 -6 2 -13 -1 -28 -7 -34z m-375 -12 c-11 -8 -25 -15
-30 -15 -6 0 -2 7 8 15 11 8 25 15 30 15 6 0 2 -7 -8 -15z m34 -15 c0 -5 -5
-10 -11 -10 -5 0 -7 5 -4 10 3 6 8 10 11 10 2 0 4 -4 4 -10z m327 -12 c-3 -8
-6 -5 -6 6 -1 11 2 17 5 13 3 -3 4 -12 1 -19z m33 -43 c0 -33 -4 -45 -15 -45
-10 0 -15 -10 -16 -27 0 -16 -3 -22 -6 -14 -5 11 27 131 34 131 2 0 3 -20 3
-45z m-554 -11 c-30 -21 -45 -16 -16 6 14 10 27 16 30 13 3 -2 -4 -11 -14 -19z
m-50 4 c10 -16 -27 -40 -53 -35 -13 2 -23 0 -23 -5 0 -5 -4 -7 -9 -4 -5 4 -23
-2 -41 -11 -22 -13 -30 -24 -27 -38 3 -19 -1 -21 -40 -20 -24 1 -43 -2 -43 -7
0 -5 -4 -6 -10 -3 -5 3 -21 -2 -35 -11 -14 -9 -28 -14 -31 -12 -2 3 22 19 56
36 33 17 60 27 60 22 0 -6 7 -10 15 -10 8 0 15 5 15 10 0 6 -6 10 -12 10 -7 0
21 17 62 38 41 21 77 35 78 30 5 -11 32 -10 32 1 0 5 -6 12 -12 14 -10 4 -10
6 -1 6 6 1 15 -4 19 -11z m84 -18 c0 -5 -5 -10 -11 -10 -5 0 -7 5 -4 10 3 6 8
10 11 10 2 0 4 -4 4 -10z m-194 -65 c-11 -8 -25 -15 -30 -15 -6 0 -2 7 8 15
11 8 25 15 30 15 6 0 2 -7 -8 -15z m34 -15 c0 -5 -5 -10 -11 -10 -5 0 -7 5 -4
10 3 6 8 10 11 10 2 0 4 -4 4 -10z m-194 -66 c-30 -21 -45 -16 -16 6 14 10 27
16 30 13 3 -2 -4 -11 -14 -19z m-50 4 c10 -16 -25 -38 -58 -36 l-29 2 23 18
c13 9 25 13 26 8 5 -13 32 -13 32 -1 0 5 -6 12 -12 14 -10 4 -10 6 -1 6 6 1
15 -4 19 -11z m831 -4 c-3 -3 -12 -4 -19 -1 -8 3 -5 6 6 6 11 1 17 -2 13 -5z
m-747 -14 c0 -5 -5 -10 -11 -10 -5 0 -7 5 -4 10 3 6 8 10 11 10 2 0 4 -4 4
-10z m-186 -36 c-4 -17 -2 -29 7 -35 7 -4 10 -11 7 -15 -4 -3 -14 1 -23 9 -11
12 -13 22 -5 41 12 34 22 33 14 0z m786 6 c-8 -5 -22 -10 -30 -10 -13 0 -13 1
0 10 8 5 22 10 30 10 13 0 13 -1 0 -10z m-15 -30 c-3 -5 -12 -10 -18 -10 -7 0
-6 4 3 10 19 12 23 12 15 0z m-820 -10 c-3 -5 -11 -10 -16 -10 -6 0 -7 5 -4
10 3 6 11 10 16 10 6 0 7 -4 4 -10z m32 -26 c-3 -3 -12 -4 -19 -1 -8 3 -5 6 6
6 11 1 17 -2 13 -5z m697 -19 c-10 -8 -23 -15 -28 -15 -6 0 -1 7 10 15 10 8
23 15 28 15 6 0 1 -7 -10 -15z m-790 -26 c-6 -11 -31 -12 -37 -1 -3 4 6 8 19
8 13 1 21 -2 18 -7z m716 -3 c0 -3 -4 -8 -10 -11 -5 -3 -10 -1 -10 4 0 6 5 11
10 11 6 0 10 -2 10 -4z m-94 -54 c1 -7 0 -8 -3 -2 -2 5 -17 8 -31 5 -23 -4
-24 -4 -7 4 24 11 38 9 41 -7z m-668 -28 c24 -7 31 -24 9 -24 -15 0 -57 29
-42 30 6 0 20 -3 33 -6z m77 -53 c3 -5 19 -12 35 -16 17 -4 38 -18 47 -31 11
-17 22 -23 37 -19 11 2 15 2 9 -1 -7 -3 -13 -13 -13 -22 0 -14 -3 -13 -18 5
-9 11 -41 35 -69 53 -29 17 -53 34 -53 36 0 8 19 4 25 -5z m372 3 c-3 -3 -12
-4 -19 -1 -8 3 -5 6 6 6 11 1 17 -2 13 -5z m93 2 c0 -3 -4 -8 -10 -11 -5 -3
-10 -1 -10 4 0 6 5 11 10 11 6 0 10 -2 10 -4z m-65 -33 c-22 -15 -55 -17 -55
-3 0 6 9 10 19 10 11 0 23 5 26 10 4 6 11 7 17 4 7 -5 4 -12 -7 -21z m-85 -43
c8 -5 11 -10 5 -10 -5 0 -17 5 -25 10 -8 5 -10 10 -5 10 6 0 17 -5 25 -10z
m-150 -19 c0 -12 -26 -32 -33 -25 -6 7 14 33 26 34 4 0 7 -4 7 -9z m137 -7
c-3 -3 -12 -4 -19 -1 -8 3 -5 6 6 6 11 1 17 -2 13 -5z m-131 -29 c-9 -9 -16
-13 -16 -8 0 12 22 34 28 28 2 -2 -3 -11 -12 -20z"/>
<path d="M8925 14288 c-33 -18 -86 -71 -103 -103 -9 -16 -25 -57 -37 -89 l-20
-60 -145 -55 -144 -56 -33 -150 c-163 -744 -315 -1695 -382 -2400 -15 -155
-19 -175 -20 -110 -3 208 47 1298 100 2178 11 192 18 351 15 354 -14 15 -36
-9 -36 -39 0 -18 -9 -181 -20 -363 -42 -709 -89 -1709 -91 -1925 -1 -187 -15
-83 -28 210 -7 146 -16 351 -22 455 -15 309 -68 1425 -70 1493 -2 59 -3 61
-20 46 -9 -8 -35 -48 -56 -87 -155 -292 -272 -709 -333 -1192 -48 -385 -60
-616 -60 -1226 0 -443 2 -508 15 -513 28 -10 180 -115 220 -152 152 -137 272
-270 355 -394 8 -12 20 -28 27 -35 20 -21 22 -46 38 -375 58 -1224 66 -1354
78 -1362 26 -17 178 -71 277 -99 58 -16 170 -41 249 -54 151 -26 398 -51 407
-42 3 3 -6 92 -20 199 -95 718 -141 1559 -153 2803 -8 882 24 2417 51 2470 8
14 10 125 8 353 -3 349 -2 345 -47 320z m-1428 -3044 c-3 -3 -12 -4 -19 -1 -8
3 -5 6 6 6 11 1 17 -2 13 -5z"/>
<path d="M15025 14025 c-48 -47 -25 -145 35 -145 38 0 60 32 60 86 0 34 -5 47
-26 63 -34 27 -40 26 -69 -4z"/>
<path d="M15314 13912 c-9 -5 -9 -39 0 -134 l11 -128 -62 0 -63 0 0 -30 0 -30
84 0 c47 0 88 5 91 10 5 8 -10 230 -20 300 -2 17 -24 24 -41 12z"/>
<path d="M10511 13538 c-100 -309 -161 -612 -164 -815 -2 -72 1 -88 13 -88 12
0 17 22 23 110 15 218 74 504 159 765 22 69 43 131 45 138 3 7 -3 12 -15 12
-18 0 -27 -18 -61 -122z"/>
<path d="M5168 13595 c-3 -3 -20 -7 -38 -10 -45 -5 -91 -25 -84 -36 3 -5 -2
-6 -10 -3 -9 3 -16 2 -17 -2 0 -5 -2 -19 -5 -31 -7 -37 28 -48 84 -26 64 24
176 23 232 -2 49 -22 73 -13 78 29 3 24 -3 29 -53 52 -31 14 -62 23 -70 20 -8
-3 -17 -1 -20 4 -6 10 -88 14 -97 5z m199 -61 c-3 -3 -12 -4 -19 -1 -8 3 -5 6
6 6 11 1 17 -2 13 -5z"/>
<path d="M4620 13572 c-35 -17 -45 -40 -25 -54 6 -5 6 -8 -2 -8 -7 0 -13 -9
-13 -20 0 -24 27 -27 56 -5 25 19 78 19 115 -1 28 -14 33 -14 55 1 28 18 29
23 9 51 -35 51 -131 69 -195 36z"/>
<path d="M10820 13428 c-29 -107 -86 -362 -102 -456 l-12 -73 35 -32 c54 -50
87 -99 111 -163 35 -97 32 -299 -11 -585 l-33 -225 136 -274 136 -273 -127
-74 c-358 -209 -443 -289 -443 -420 0 -57 34 -288 66 -443 46 -230 96 -458
104 -477 7 -17 6 -23 -3 -23 -9 0 -9 -2 -1 -8 7 -4 17 -34 23 -67 16 -79 29
-120 57 -179 13 -27 22 -52 19 -54 -3 -3 -5 1 -5 8 0 7 -2 11 -5 8 -8 -8 6
-39 15 -33 4 3 20 -14 35 -38 15 -23 37 -52 48 -64 20 -22 20 -23 1 -40 -11
-10 -18 -17 -15 -16 2 2 11 -3 20 -10 14 -10 14 -10 3 5 -12 15 -11 17 8 15
13 -1 43 -21 69 -44 38 -36 43 -45 31 -53 -11 -8 -8 -9 13 -4 27 6 40 -10 15
-19 -7 -2 -9 -8 -5 -13 4 -5 12 -2 17 6 12 19 52 -2 86 -47 14 -18 30 -33 37
-33 7 0 4 5 -5 11 -37 21 -16 26 21 6 22 -12 37 -26 34 -31 -4 -5 -2 -6 4 -3
14 9 88 -20 85 -33 -1 -6 2 -9 8 -5 6 3 35 -3 66 -14 30 -12 64 -21 75 -21 11
0 18 -3 16 -7 -3 -5 7 -8 21 -9 60 -2 128 -17 138 -31 10 -12 14 -12 27 2 9 8
23 15 32 15 22 0 86 28 107 47 16 14 14 20 -39 91 -83 112 -84 185 -3 240 28
19 44 23 83 19 l47 -4 0 192 0 192 -29 41 c-74 101 -245 162 -371 132 -53 -13
-165 -82 -235 -144 -23 -21 -46 -34 -55 -31 -39 15 -128 75 -177 119 -79 72
-193 228 -193 264 0 8 26 12 79 12 l79 0 6 -34 c13 -66 26 -71 235 -74 102 -2
201 -1 219 3 51 9 72 52 72 148 l0 77 54 0 c48 0 55 -3 58 -21 2 -12 13 -28
26 -37 22 -14 22 -14 22 46 0 40 5 64 14 72 23 18 304 10 316 -10 14 -22 13
-203 -2 -218 -8 -8 -54 -12 -140 -12 -71 0 -128 -4 -128 -9 0 -38 10 -41 132
-41 123 0 169 11 182 45 3 9 6 68 6 131 0 109 -1 116 -25 139 -24 25 -27 25
-187 25 -132 0 -168 -3 -186 -16 -12 -8 -22 -22 -22 -30 0 -11 -14 -14 -61
-14 -55 0 -63 3 -86 30 l-25 30 -212 0 -213 0 -23 -25 c-20 -21 -25 -39 -28
-96 l-4 -70 -90 2 -90 2 -14 33 c-26 61 -45 165 -45 243 -1 135 32 229 110
312 46 49 47 50 181 83 148 37 344 66 449 66 82 0 229 -19 255 -32 22 -12 69
-112 86 -186 11 -47 14 -52 34 -46 53 16 209 74 214 79 10 10 -91 761 -158
1172 -66 407 -110 570 -209 779 -117 245 -170 299 -486 484 -77 46 -185 109
-239 141 -55 33 -103 59 -107 59 -4 0 -17 -37 -29 -82z m604 -2974 c22 -21 23
-206 2 -224 -19 -15 -384 -14 -403 2 -20 16 -18 201 3 222 13 13 45 16 199 16
154 0 186 -3 199 -16z"/>
<path d="M11212 10434 c-43 -30 -21 -124 30 -124 45 0 64 84 28 120 -24 24
-29 24 -58 4z"/>
<path d="M4667 13393 c-28 -32 -26 -109 3 -141 26 -28 35 -28 65 3 17 17 25
35 25 60 0 77 -53 122 -93 78z"/>
<path d="M5169 13389 c-30 -30 -24 -115 11 -141 15 -10 33 -16 42 -13 34 13
50 94 27 138 -23 42 -48 48 -80 16z"/>
<path d="M4776 13228 c-6 -24 -25 -133 -32 -185 -6 -51 -6 -51 22 -55 16 -2
50 -1 77 0 39 3 47 7 47 24 0 17 -6 19 -47 18 -27 -1 -51 -1 -54 -1 -3 1 2 45
12 98 15 76 16 99 6 105 -17 11 -27 10 -31 -4z"/>
<path d="M14060 12610 c0 -5 -15 -13 -32 -18 -18 -5 -32 -15 -30 -21 1 -7 -2
-10 -7 -6 -13 8 -82 -30 -73 -40 4 -5 2 -5 -4 -2 -7 4 -44 -11 -84 -33 -40
-22 -76 -40 -80 -40 -4 0 -10 -7 -14 -15 -3 -9 -12 -12 -22 -8 -12 4 -15 3
-10 -6 5 -8 3 -11 -5 -10 -14 3 -22 -1 -139 -65 -36 -20 -87 -48 -115 -61 -91
-46 -147 -84 -140 -96 4 -5 0 -6 -8 -3 -8 3 -18 0 -23 -7 -5 -8 -3 -10 6 -4 9
5 11 4 6 -4 -4 -6 -12 -9 -17 -5 -30 18 -351 -279 -332 -308 3 -6 1 -8 -4 -5
-14 9 -105 -113 -98 -131 2 -7 1 -11 -4 -7 -20 12 -178 -293 -167 -322 4 -9 1
-11 -6 -7 -8 5 -9 2 -5 -9 3 -10 3 -17 -2 -17 -12 0 -43 -118 -35 -132 4 -7 3
-8 -4 -4 -7 4 -12 5 -12 3 0 -3 -7 -41 -15 -86 -9 -45 -13 -86 -10 -92 4 -5 1
-17 -7 -26 -11 -13 -14 -194 -16 -982 -2 -531 0 -976 3 -988 3 -12 13 -24 23
-27 20 -7 250 -34 342 -40 36 -3 121 -12 190 -20 69 -8 155 -17 192 -21 l68
-7 31 -49 c35 -52 42 -59 33 -31 -5 16 -5 16 6 -1 6 -9 9 -21 6 -25 -7 -11 23
-47 31 -37 5 4 2 10 -4 12 -7 3 -13 14 -13 26 0 18 2 19 11 7 7 -11 8 14 3 85
-4 55 -6 110 -5 123 0 13 -6 36 -14 52 -8 16 -15 35 -14 42 0 7 4 4 9 -7 5
-12 6 3 3 40 -2 33 -4 83 -5 110 0 38 -2 44 -7 25 -4 -14 -10 69 -14 185 -4
116 -11 269 -17 340 -6 72 -13 166 -15 210 -2 44 -7 128 -10 188 -5 90 -4 107
9 107 8 0 16 3 18 8 2 4 25 18 52 31 94 46 199 148 271 263 30 48 55 90 55 93
0 3 12 29 26 58 74 152 185 528 168 571 -3 9 -2 16 4 16 5 0 13 28 17 63 4 34
9 71 12 82 11 53 23 149 18 153 -3 3 -1 10 4 16 5 6 12 52 15 101 3 50 11 128
16 175 5 47 13 212 16 368 7 259 6 282 -9 282 -10 0 -17 -4 -17 -10z m-1319
-1077 c-12 -20 -14 -14 -5 12 4 9 9 14 11 11 3 -2 0 -13 -6 -23z m696 -1159
c-3 -3 -12 -4 -19 -1 -8 3 -5 6 6 6 11 1 17 -2 13 -5z m-27 -679 c0 -8 -4 -15
-10 -15 -5 0 -10 7 -10 15 0 8 5 15 10 15 6 0 10 -7 10 -15z m-13 -117 c-3 -8
-6 -5 -6 6 -1 11 2 17 5 13 3 -3 4 -12 1 -19z m20 -40 c-2 -13 -4 -5 -4 17 -1
22 1 32 4 23 2 -10 2 -28 0 -40z m12 -633 c-7 -7 -13 -5 -19 5 -15 24 -11 31
10 18 13 -9 16 -16 9 -23z m41 -16 c0 -17 -4 -28 -10 -24 -5 3 -10 17 -10 31
0 13 5 24 10 24 6 0 10 -14 10 -31z"/>
<path d="M4880 12548 c-23 -10 -23 -11 -5 -15 11 -2 30 -6 42 -8 12 -3 38 -27
58 -55 37 -51 69 -63 104 -41 12 8 8 16 -19 41 -36 33 -103 75 -135 83 -11 3
-31 1 -45 -5z"/>
<path d="M5350 12460 c0 -5 5 -10 11 -10 5 0 7 5 4 10 -3 6 -8 10 -11 10 -2 0
-4 -4 -4 -10z"/>
<path d="M5288 12443 c6 -2 18 -2 25 0 6 3 1 5 -13 5 -14 0 -19 -2 -12 -5z"/>
<path d="M5233 12433 c9 -2 23 -2 30 0 6 3 -1 5 -18 5 -16 0 -22 -2 -12 -5z"/>
<path d="M5349 12431 c9 -6 10 -10 2 -14 -8 -4 -8 -5 1 -3 20 4 21 26 1 26
-14 0 -15 -2 -4 -9z"/>
<path d="M5381 12407 c1 -21 3 -25 6 -12 3 11 10 23 15 26 5 3 3 9 -6 12 -13
5 -16 0 -15 -26z"/>
<path d="M5193 12416 c0 -6 10 -11 23 -11 25 0 23 10 -4 17 -10 3 -19 0 -19
-6z"/>
<path d="M5265 12420 c-13 -5 -14 -9 -5 -9 8 0 24 4 35 9 13 5 14 9 5 9 -8 0
-24 -4 -35 -9z"/>
<path d="M5360 12285 c0 -8 4 -15 10 -15 5 0 7 7 4 15 -4 8 -8 15 -10 15 -2 0
-4 -7 -4 -15z"/>
<path d="M5191 12254 c0 -11 3 -14 6 -6 3 7 2 16 -1 19 -3 4 -6 -2 -5 -13z"/>
<path d="M5290 12226 c0 -8 5 -18 10 -21 6 -3 10 1 10 9 0 8 -4 18 -10 21 -5
3 -10 -1 -10 -9z"/>
<path d="M5331 12204 c0 -11 3 -14 6 -6 3 7 2 16 -1 19 -3 4 -6 -2 -5 -13z"/>
<path d="M5283 12178 c4 -11 0 -18 -11 -21 -9 -3 -5 -4 10 -4 23 1 25 4 15 17
-19 25 -20 26 -14 8z"/>
<path d="M5285 12130 c-3 -5 -1 -10 4 -10 6 0 11 5 11 10 0 6 -2 10 -4 10 -3
0 -8 -4 -11 -10z"/>
<path d="M5229 12112 c6 -12 16 -24 22 -28 8 -4 8 -1 0 14 -6 12 -16 24 -22
28 -8 4 -8 1 0 -14z"/>
<path d="M11715 10751 c-59 -10 -129 -52 -133 -79 -7 -49 34 -65 91 -35 18 10
66 19 112 22 l80 6 3 31 c2 17 -3 35 -10 41 -18 15 -95 22 -143 14z"/>
<path d="M11080 10696 c-89 -26 -180 -84 -180 -116 0 -56 41 -66 103 -24 21
14 56 32 79 40 53 18 169 18 215 -1 52 -22 82 -19 94 9 16 35 -3 61 -58 81
-64 22 -196 28 -253 11z"/>
<path d="M11740 10430 c-11 -11 -20 -31 -20 -45 0 -27 32 -65 54 -65 20 0 46
39 46 67 0 23 -32 63 -50 63 -5 0 -19 -9 -30 -20z"/>
<path d="M10470 10106 c0 -2 8 -10 18 -17 15 -13 16 -12 3 4 -13 16 -21 21
-21 13z"/>
<path d="M10455 10080 c3 -5 8 -10 11 -10 2 0 4 5 4 10 0 6 -5 10 -11 10 -5 0
-7 -4 -4 -10z"/>
<path d="M10510 10070 c0 -5 9 -14 20 -20 11 -6 20 -9 20 -8 0 2 -9 11 -20 21
-11 9 -20 13 -20 7z"/>
<path d="M10520 10031 c22 -20 41 -29 52 -25 10 3 18 1 18 -5 0 -6 -5 -11 -11
-11 -5 0 -7 -5 -3 -11 5 -8 10 -6 16 5 12 21 1 39 -19 31 -9 -3 -32 6 -52 21
l-36 25 35 -30z"/>
<path d="M10610 9981 c0 -5 9 -13 20 -16 11 -3 20 -13 20 -20 0 -8 4 -16 9
-19 5 -4 7 3 4 14 -5 20 -53 57 -53 41z"/>
<path d="M10617 9949 c7 -7 15 -10 18 -7 3 3 -2 9 -12 12 -14 6 -15 5 -6 -5z"/>
<path d="M3734 9713 c2 -54 5 -163 5 -242 1 -125 4 -148 19 -165 27 -31 124
-189 170 -278 22 -42 44 -73 48 -70 4 4 4 1 0 -6 -4 -7 2 -27 13 -45 11 -18
34 -70 51 -117 17 -46 37 -98 44 -115 7 -16 23 -64 36 -105 24 -81 34 -114 45
-145 4 -11 9 -27 11 -35 1 -8 8 -45 15 -82 6 -38 16 -68 21 -68 5 0 7 -4 4 -9
-3 -5 -1 -34 5 -65 5 -31 18 -119 28 -194 l19 -137 1 786 c1 680 -1 791 -14
815 -8 16 -15 36 -15 45 0 8 -4 19 -8 25 -5 5 -21 54 -37 109 -15 55 -31 103
-35 107 -3 5 -55 15 -115 23 -61 9 -155 27 -209 40 -54 14 -100 25 -102 25 -2
0 -2 -44 0 -97z"/>
<path d="M10780 9562 c0 -5 7 -15 15 -22 8 -7 15 -9 15 -6 0 4 -7 14 -15 22
-8 9 -15 11 -15 6z"/>
<path d="M10823 9477 c4 -10 7 -24 7 -30 0 -8 3 -8 11 0 9 9 7 16 -7 30 -17
17 -18 17 -11 0z"/>
<path d="M10890 9416 c0 -2 7 -9 15 -16 13 -11 14 -10 9 4 -5 14 -24 23 -24
12z"/>
<path d="M10880 9382 c0 -5 7 -12 15 -16 8 -3 13 -13 10 -23 -3 -10 0 -8 6 5
15 28 34 29 36 1 3 -30 19 -44 18 -16 -2 35 -15 49 -38 43 -12 -3 -27 0 -34 6
-8 7 -13 7 -13 0z"/>
<path d="M10916 9325 c-3 -8 -1 -15 4 -15 6 0 10 7 10 15 0 8 -2 15 -4 15 -2
0 -6 -7 -10 -15z"/>
<path d="M10935 9300 c-7 -12 22 -56 56 -85 l23 -20 -17 28 c-20 30 -3 39 19
10 11 -15 13 -15 14 -3 0 20 -42 48 -48 31 -7 -21 -23 -11 -18 12 3 12 3 16 0
9 -8 -17 -24 -5 -17 13 6 17 -3 20 -12 5z"/>
<path d="M11040 9290 c8 -5 20 -10 25 -10 6 0 3 5 -5 10 -8 5 -19 10 -25 10
-5 0 -3 -5 5 -10z"/>
<path d="M11041 9244 c0 -11 3 -14 6 -6 3 7 2 16 -1 19 -3 4 -6 -2 -5 -13z"/>
<path d="M11026 9193 c-8 -20 9 -40 19 -22 6 8 4 10 -5 4 -9 -5 -10 -2 -5 14
8 25 0 29 -9 4z"/>
<path d="M11055 9150 c3 -5 11 -10 16 -10 6 0 7 5 4 10 -3 6 -11 10 -16 10 -6
0 -7 -4 -4 -10z"/>
<path d="M11290 9150 c-13 -9 -13 -10 0 -10 10 0 11 -3 3 -8 -6 -4 18 -7 54
-8 60 -1 62 0 35 11 -16 7 -42 11 -58 8 -22 -4 -26 -2 -14 6 19 13 0 14 -20 1z"/>
<path d="M11148 9113 c7 -3 16 -2 19 1 4 3 -2 6 -13 5 -11 0 -14 -3 -6 -6z"/>
<path d="M11100 9104 c1 -5 21 -24 45 -41 32 -24 46 -29 51 -20 4 6 4 9 -1 5
-4 -4 -27 9 -51 29 -24 19 -44 31 -44 27z"/>
<path d="M11190 9101 c0 -8 -7 -10 -22 -5 -20 6 -21 5 -9 -10 7 -9 17 -16 21
-16 10 0 22 31 15 38 -3 3 -5 0 -5 -7z"/>
<path d="M11578 9083 c7 -3 16 -2 19 1 4 3 -2 6 -13 5 -11 0 -14 -3 -6 -6z"/>
<path d="M11870 9086 c0 -2 8 -10 18 -17 15 -13 16 -12 3 4 -13 16 -21 21 -21
13z"/>
<path d="M11521 9066 c2 -2 26 -6 53 -9 30 -3 43 -1 35 4 -13 8 -97 13 -88 5z"/>
<path d="M11206 9031 c-3 -5 1 -14 9 -21 8 -7 15 -8 15 -3 0 6 10 15 23 22 21
11 5 8 -30 -6 -11 -4 -14 -3 -9 5 4 7 5 12 2 12 -3 0 -7 -4 -10 -9z"/>
<path d="M11905 9031 c-3 -7 0 -8 9 -5 17 7 22 -11 6 -19 -6 -3 -5 -4 2 -3 16
3 17 28 1 33 -6 2 -14 -1 -18 -6z"/>
<path d="M11603 8950 c0 -25 2 -35 4 -22 2 12 2 32 0 45 -2 12 -4 2 -4 -23z"/>
<path d="M11301 8956 c2 -2 18 -11 36 -20 26 -13 31 -13 29 -1 -1 8 -6 18 -11
22 -4 4 -5 2 -1 -4 8 -15 -10 -18 -19 -3 -3 6 -13 10 -22 10 -9 0 -14 -2 -12
-4z"/>
<path d="M11987 8929 c18 -19 42 -35 52 -35 15 0 17 4 10 13 -6 6 -16 10 -24
7 -7 -3 -19 3 -26 13 -8 11 -21 23 -29 28 -8 4 0 -7 17 -26z"/>
<path d="M11390 8930 c9 -6 9 -9 -1 -13 -11 -4 -10 -6 2 -6 8 -1 23 5 32 12
15 11 14 12 -14 13 -17 1 -25 -2 -19 -6z"/>
<path d="M12070 8881 c0 -8 -8 -10 -22 -6 -21 6 -21 6 -6 -6 10 -8 24 -23 33
-34 12 -16 14 -17 9 -2 -5 14 -2 16 12 10 18 -6 18 -5 -1 18 -11 13 -21 26
-22 28 -2 2 -3 -1 -3 -8z"/>
<path d="M11498 8865 c22 -10 40 -11 55 -5 23 9 22 9 -48 15 l-40 4 33 -14z"/>
<path d="M11588 8873 c6 -2 18 -2 25 0 6 3 1 5 -13 5 -14 0 -19 -2 -12 -5z"/>
<path d="M11598 8853 c7 -3 16 -2 19 1 4 3 -2 6 -13 5 -11 0 -14 -3 -6 -6z"/>
<path d="M11598 8833 c7 -3 16 -2 19 1 4 3 -2 6 -13 5 -11 0 -14 -3 -6 -6z"/>
<path d="M12106 8814 c-5 -14 -4 -15 9 -4 17 14 19 20 6 20 -5 0 -12 -7 -15
-16z"/>
<path d="M15690 7944 c-34 -8 -666 -55 -930 -69 -157 -8 -374 -15 -482 -15
-109 0 -198 -2 -198 -5 0 -6 104 -166 475 -725 158 -239 386 -583 505 -765
120 -181 245 -366 278 -410 68 -90 123 -198 149 -295 28 -102 25 -312 -5 -410
-99 -314 -358 -533 -675 -569 -148 -17 -292 8 -426 73 -162 79 -224 144 -496
521 -291 405 -426 591 -475 655 -22 30 -116 159 -208 286 -92 126 -207 286
-257 354 -49 68 -124 172 -165 231 -96 138 -276 390 -292 408 -39 46 -115 161
-110 166 4 4 2 5 -4 3 -9 -2 -128 148 -204 259 -36 52 -180 250 -195 268 -9
11 -5 -2 10 -30 49 -90 525 -965 648 -1190 206 -378 281 -515 377 -690 51 -93
116 -213 145 -265 29 -52 89 -163 134 -246 l82 -152 2 -151 c1 -83 -1 -151 -5
-151 -5 0 -8 -803 -8 -1785 l0 -1785 1007 2 1007 3 28 135 c154 735 254 1409
323 2180 85 952 109 1555 102 2555 -5 684 -11 888 -37 1360 -14 260 -14 255
-53 254 -18 -1 -39 -3 -47 -5z"/>
<path d="M6360 7698 c-63 -26 -162 -65 -219 -85 l-104 -37 7 -105 c3 -58 11
-153 16 -211 6 -58 22 -231 36 -385 13 -154 36 -388 50 -520 13 -132 27 -268
31 -302 l6 -63 353 0 c195 0 354 4 354 8 0 17 -82 422 -140 692 -106 492 -243
1028 -268 1051 -4 3 -59 -16 -122 -43z"/>
<path d="M12845 7600 c-3 -6 1 -7 9 -4 18 7 21 14 7 14 -6 0 -13 -4 -16 -10z"/>
<path d="M5795 7498 c-59 -19 -262 -69 -355 -88 -200 -39 -363 -53 -580 -47
-252 7 -369 31 -524 108 -33 16 -61 28 -62 26 -5 -5 -78 -507 -139 -952 -186
-1373 -320 -2661 -375 -3610 -26 -450 -23 -1098 7 -1407 l6 -68 1378 0 1378 0
10 53 c65 323 197 1172 260 1672 29 228 81 698 81 729 0 12 -64 15 -437 18
l-438 3 -57 28 c-61 30 -124 93 -154 155 -18 35 -19 81 -22 827 -3 738 -2 794
15 844 22 66 87 137 156 170 26 12 47 29 47 37 0 7 -9 96 -20 196 -40 368
-120 1231 -120 1301 0 19 -11 20 -55 5z"/>
<path d="M16469 6403 c-13 -16 -12 -17 4 -4 9 7 17 15 17 17 0 8 -8 3 -21 -13z"/>
<path d="M7170 5370 c-12 -8 -12 -10 -1 -10 8 0 11 -3 7 -7 -4 -5 -13 -8 -19
-8 -18 0 -18 -102 0 -116 7 -7 16 -9 20 -5 4 3 -2 12 -12 20 -10 7 -14 15 -9
18 13 7 46 -30 34 -37 -15 -9 -12 -25 5 -25 8 0 15 5 15 11 0 16 31 38 53 39
11 0 20 10 24 30 3 17 8 29 10 26 3 -2 2 -18 -2 -34 -4 -21 -14 -32 -31 -36
-13 -4 -24 -13 -24 -21 0 -24 55 14 68 47 12 31 -2 93 -19 82 -5 -3 -9 1 -9 9
0 8 -7 18 -16 21 -24 9 -77 7 -94 -4z m60 -7 c-14 -3 -28 -10 -32 -17 -5 -7
-8 -5 -8 7 0 13 8 17 33 16 27 -2 28 -2 7 -6z m16 -92 c-9 -14 -44 -20 -49 -7
-3 7 7 13 25 14 16 1 27 -2 24 -7z"/>
<path d="M7120 5290 c0 -5 5 -10 11 -10 5 0 7 5 4 10 -3 6 -8 10 -11 10 -2 0
-4 -4 -4 -10z"/>
<path d="M6370 5008 l0 -28 750 0 750 0 0 25 0 25 -750 2 -750 3 0 -27z"/>
</g>
</svg>
